<svg id="Capa_1" data-name="Capa 1" xmlns="http://www.w3.org/2000/svg" viewBox="0 0 261 239"><defs><style>.cls-1{fill:#586792;}.cls-2{fill:#38303a;}.cls-3{fill:#f0f1f4;}.cls-4{fill:#c6d3d8;}.cls-5{fill:#d0d9dd;}.cls-6{fill:#daaac3;}.cls-7{fill:#443a43;}.cls-8{fill:#525055;}.cls-9{fill:#d7dbde;}</style></defs><title>Mesa de trabajo 2g</title><rect class="cls-1" width="261" height="239"/><path class="cls-2" d="M36.6,128.45c1.67.76.9,2.31,1.08,3.52,1.38,9.15,9.16,14.21,18.24,11.9,6.72-1.71,11.7-6.2,16.78-10.47,8.67-7.31,18.14-12.94,29.57-14.56,6.8-1,13.61-.56,20.42.16,9.37,1,18.26,0,25.93-6.24,2.51-2,3.07-3.3.46-6.14C137.25,93.72,137.91,94.75,146,79.68c2.51-4.66,3.61-8.75,2.87-14-1.1-7.91-1-16,1.82-23.68,1.93-5.38,4.59-6,8.79-2A63.39,63.39,0,0,1,170.62,54c1.95,3.32,4.6,2.62,7.33,2,2.54-.56,5.57-.11,6.1-4.24a37.71,37.71,0,0,1,4.34-12.67c1.15-2.18,2.22-4.77,5.24-4.7,2.71.07,3.81,2.41,4.92,4.44a65.09,65.09,0,0,1,6.88,19.68,28.94,28.94,0,0,0,6.24,13.8c1.34,1.62,2.87,3.29,3,5.63-4-1.18-6.54-4.08-8.82-7.28-2.49-3.49-5.52-6.21-9.76-7.31-2.47-.64-4.31-.48-3.69,3a73.73,73.73,0,0,1,.46,7.75c-2.24-2.89-3.44-4.66-4.86-6.23-3.76-4.17-8.4-4.17-11.94.19A33.68,33.68,0,0,0,172,74.89a34.21,34.21,0,0,1-7.23,10c-7.59,7.37-7.22,14.72,1.54,20.64,9.66,6.52,13,15.6,12,26.65-.78,8.32-3.54,14.84-14.52,12.9-6-1.06-8.31,1.74-7.55,7.86,1,8.48,4.5,16.21,8,23.91q.15,1.95.31,3.9c-4.44,1.39-8.61.23-12.55-1.66-8.45-4.05-15.95-9.73-23.79-14.77-3.84-2.47-6.83-6.3-10.08-9.65-3.77-3.89-8.27-5.21-13.58-4.73-7.22.65-12.73,4.54-17.95,9-3.79,3.25-7.35,6.78-11.22,9.92-2.31,1.87-5.72,2.46-6.42-1.07-1-4.85-4.84-9-3.48-14.38,0-.14-.33-.38-.61-.69-3.84,3.26-7.93,6-12.86,7.3l-.75-1,2.15-4.49c-13.09.77-19.26-3.74-19.48-14.52-.07-3.55,1.09-7.12,1.69-10.68l-.08.07ZM155.3,67.21c3.89-2.8,7-5.63,10.77-7.29,1.83-.8,1.91-1.89.84-3.49a65.23,65.23,0,0,0-7.49-9.89c-2.15-2.19-3.93-2-4.56,1.07C153.54,54,154,60.36,155.3,67.21Zm47.47-5.74a67.61,67.61,0,0,0-4.89-17.86c-.58-1.38-1.72-3.67-3.34-.85a23.11,23.11,0,0,0-2.69,12.42c.1,2.6,4.07,2,6,3.37C199.15,59.5,200.63,60.22,202.77,61.47Z"/><path class="cls-3" d="M164.2,176.9c-3.48-7.7-6.94-15.43-8-23.91-.75-6.12,1.56-8.92,7.55-7.86,11,1.94,13.74-4.58,14.52-12.9,1-11.05-2.34-20.12-12-26.65-8.76-5.92-9.13-13.27-1.54-20.64a34.21,34.21,0,0,0,7.23-10,33.68,33.68,0,0,1,4.09-6.81c3.53-4.36,8.17-4.36,11.94-.19,1.42,1.57,2.62,3.34,4.86,6.23a73.73,73.73,0,0,0-.46-7.75c-.61-3.47,1.22-3.63,3.69-3,4.23,1.09,7.27,3.82,9.76,7.31,2.28,3.2,4.85,6.1,8.82,7.28,6.59,4.5,4,10.92,3,16.6a50.94,50.94,0,0,1-16.59,29.7c-4.78,1.54-9.73.8-14.67.69,3.17,3.34,7,4,11,3.19,2.24-.45,3.08.19,3.21,2.28-.4,10.7-4.35,20.15-10.12,29l-1,1,0-.05c-1.08.87-1.1,2.06-1,3.28a3,3,0,0,1-.65.74c-5.57.68-8.45,6-13.42,7.75C171.17,174.09,166.82,173.64,164.2,176.9Zm39.24-60.56-.14.39.22-.31.95-1,.56-.62-.39-.2-.16.83Zm-15-3,.26.29-.27-.28-.27-.27ZM181.81,79l-.17.14.29-.15c-1.18,2.26.29,2.51,1.95,2.47a2.07,2.07,0,0,0,2-2.31c0-1.45-.85-2.75-2.33-2.62-2.84.25.07,1.87-.5,2.67C183,79.36,182.27,79.08,181.81,79Zm22.35,22.11c.52-2.43.41-5.18,3.26-6.28-4-2.45-7.27-1.21-11,.87s-8.26,1.21-11.86-.92c-2.11-1.25-2.83-.29-3.72.86-.71.91-.19,3.13-.09,3.08,5.12-2.48,3.75,3.31,5.86,4.53,2.17,3.49,3.87,7.31,7.24,9.95,4.41,3.46,8.38,2.21,9.66-3.17A25.75,25.75,0,0,0,204.15,101.12ZM203,79.23c-4.5,0-7.46,1.3-7.57,3.27s4.54,6,7.3,5.86c3.42-.23,5.36-2.59,5.56-5.76C208.52,78.91,205.55,79.16,203,79.23Zm.45-3.18c-.18-1.39-.67-2.52-2.25-2.7s-1.78,1.09-1.91,2.19a2.25,2.25,0,0,0,2.09,2.72C202.72,78.39,203.21,77.22,203.46,76Zm-10.88,40.71c1.58,2.57,3.76,4.05,7.45,2.16Z"/><path class="cls-3" d="M52,160.09c4.93-1.26,9-4,12.86-7.3.28.31.65.55.61.69-1.35,5.37,2.51,9.53,3.48,14.38.71,3.52,4.12,2.93,6.42,1.07,3.88-3.14,7.44-6.67,11.22-9.92,5.22-4.49,10.73-8.37,17.95-9,5.31-.48,9.81.84,13.58,4.73,3.24,3.35,6.23,7.18,10.08,9.65,7.85,5,15.34,10.72,23.79,14.77,3.94,1.89,8.12,3,12.55,1.66,2.84,3,3.57,7,5.39,10.53,1.42,2.73,2.9,3.54,5.92,2.44,5.08-1.86,12.29,3.85,11.2,9.15-.71,3.44-4.38,4.58-7.53,5.63-.92-1.32-1.46-3-3.81-3.78l1.67,5.36c-10.11,4.12-10,4-17.07-4.16A169.45,169.45,0,0,1,143,182.43c-2.54-4.25-5.46-6.88-10.68-6.11a9.81,9.81,0,0,1-2.92-.47c-7.68-1.67-15.09-4.47-22.92-5.51-8.43-2.66-13.83-1.19-18.81,5.69a15.5,15.5,0,0,1-12,6.9c-8.07.73-9,1.89-9.33,9.82-.16,3.37-1,6-4.42,7.64-3.73,1.8-7.17,1.22-10.5-.53-2-1-2-3.34-2-5.35-.11-7.81,2.09-15.1,5-22.21.84-2,2.71-2.82,4.34-3.94,1.86-1.27,4.32-1.85,5.06-3.77-5.42-3.22-10.81-.28-16.27-.11a13.51,13.51,0,0,1-8.1-2c-.73-.48-3.5-.3-.44-2.22,2.21-1.38-.81-1.66-1.49-2.06-9.62-5.69-9.2-21.9-3.43-28.46.25-.29.89-.24,1.35-.35-.6,3.56-1.76,7.14-1.69,10.68.22,10.79,6.39,15.29,19.48,14.52l-2.15,4.49-.85.83Zm121.67,41.75a1.35,1.35,0,0,0-1.39-1.22c-.26,0-.73.18-.76.35-.16.78.44,1.09,1,1.18C172.87,202.21,173.27,202,173.63,201.84Z"/><path class="cls-3" d="M187.81,164.38a2.92,2.92,0,0,0,.65-.74,4.07,4.07,0,0,0,1-3.28l0,.05,1.8.1c3.05,3.71,6.19,7.37,9.14,11.16,2.43,3.13,5.18,4.39,9.09,2.79a7,7,0,0,1,7.85,1.34c5,4.47,5,7-.65,10.83-2.08-.46-2.57-2.4-3.63-3.83-1.75-2.37-3.73-4.37-7.84-2.67,5.59.61,6.75,4.6,8.28,8.27-6.53,4.91-12.85,4.78-19.21-.5-4.8-4-10-7.5-14-12.4C183.29,172.12,187.08,169.28,187.81,164.38Z"/><path class="cls-3" d="M125.35,177.26c-8.19,3.64-13.57,9.17-15.44,18.53-1.28,6.41-11.69,8.56-16.66,4.2a4.83,4.83,0,0,1-1.46-4.52,56.26,56.26,0,0,1,4.59-16.17c1.65-3.79,6.16-3,8.36-5.76C111.59,174.88,118.68,174.95,125.35,177.26Z"/><path class="cls-4" d="M125.35,177.26c-6.68-2.32-13.76-2.38-20.61-3.73l1.8-3.19c7.83,1,15.24,3.83,22.92,5.51Z"/><path class="cls-4" d="M187.81,164.38c-.73,4.9-4.52,7.74-7.52,11.11-2.07-.93-3.49-3-5.9-3.36C179.36,170.39,182.24,165.06,187.81,164.38Z"/><path class="cls-5" d="M200.58,130.43c-.13-2.09-1-2.74-3.21-2.28-4,.81-7.8.14-11-3.19,4.94.11,9.89.86,14.67-.69C201.45,126.36,201.71,128.45,200.58,130.43Z"/><path class="cls-5" d="M213.48,188.38c-1.52-3.67-2.69-7.66-8.28-8.27,4.1-1.69,6.09.31,7.84,2.67,1.06,1.44,1.56,3.37,3.63,3.83C216.09,188.09,214.82,188.3,213.48,188.38Z"/><path class="cls-5" d="M177.35,210.12l-1.67-5.36c2.35.76,2.89,2.46,3.81,3.78Z"/><path class="cls-4" d="M191.24,160.51l-1.8-.1,1-1Z"/><path class="cls-6" d="M155.3,67.21c-1.31-6.85-1.76-13.22-.44-19.6.63-3,2.41-3.26,4.56-1.07a65.23,65.23,0,0,1,7.49,9.89c1.07,1.6,1,2.7-.84,3.49C162.25,61.58,159.19,64.41,155.3,67.21Z"/><path class="cls-6" d="M202.77,61.47c-2.14-1.25-3.61-2-4.92-2.92-1.93-1.41-5.91-.78-6-3.37a23.11,23.11,0,0,1,2.69-12.42c1.62-2.82,2.77-.52,3.34.85A67.61,67.61,0,0,1,202.77,61.47Z"/><path class="cls-6" d="M204.15,101.12a25.75,25.75,0,0,1-.62,8.92c-1.29,5.38-5.26,6.63-9.66,3.17-3.37-2.64-5.07-6.45-7.24-9.95C192.22,100.49,198.47,103.14,204.15,101.12Z"/><path class="cls-7" d="M204.15,101.12c-5.68,2-11.93-.63-17.52,2.14-2.11-1.22-.74-7-5.86-4.53-.1,0-.62-2.17.09-3.08.89-1.14,1.61-2.1,3.72-.86,3.6,2.13,8,3.07,11.86.92s7-3.32,11-.87C204.56,95.95,204.67,98.69,204.15,101.12Z"/><path class="cls-8" d="M203,79.23c2.54-.07,5.51-.32,5.28,3.36-.2,3.18-2.13,5.54-5.56,5.76-2.76.18-7.42-3.79-7.3-5.86S198.51,79.25,203,79.23Z"/><path class="cls-8" d="M203.46,76c-.25,1.17-.74,2.34-2.07,2.22a2.25,2.25,0,0,1-2.09-2.72c.13-1.1.26-2.38,1.91-2.19S203.28,74.66,203.46,76Z"/><path class="cls-8" d="M181.83,79c.43.08,1.14.36,1.25.22.57-.8-2.34-2.41.5-2.67,1.48-.13,2.34,1.17,2.33,2.62a2.07,2.07,0,0,1-2,2.31c-1.65,0-3.13-.21-1.95-2.47Z"/><path class="cls-9" d="M192.58,116.76l7.45,2.16C196.34,120.81,194.16,119.33,192.58,116.76Z"/><path class="cls-4" d="M189.49,160.35a4.07,4.07,0,0,1-1,3.28C188.38,162.41,188.41,161.22,189.49,160.35Z"/><path class="cls-9" d="M204.48,115.4l.16-.83.39.2-.56.62Z"/><polygon class="cls-9" points="188.48 113.38 188.19 113.13 188.47 113.39 188.48 113.38"/><polygon class="cls-9" points="188.47 113.39 188.73 113.67 188.48 113.38 188.47 113.39"/><path class="cls-8" d="M181.92,79l-.29.15.19-.15A.34.34,0,0,1,181.92,79Z"/><path class="cls-9" d="M203.52,116.43l-.23.31.14-.39Z"/><path class="cls-9" d="M204.47,115.38l-.95,1-.08-.08,1-.95Z"/><path class="cls-5" d="M173.63,201.84c-.36.11-.76.37-1.11.32-.61-.09-1.21-.4-1-1.18,0-.17.5-.36.76-.35A1.35,1.35,0,0,1,173.63,201.84Z"/><path class="cls-2" d="M52,160.09l-1.59-.14.85-.83Z"/></svg>