<svg id="Capa_1" data-name="Capa 1" xmlns="http://www.w3.org/2000/svg" viewBox="0 0 261 239"><defs><style>.cls-1{fill:#787ea4;}.cls-2{fill:#f0f1f4;}.cls-3{fill:#38303a;}.cls-4{fill:#eceef1;}.cls-5{fill:#c6d3d8;}.cls-6{fill:#525055;}.cls-7{fill:#daaac3;}</style></defs><title>Mesa de trabajo 3g</title><rect class="cls-1" width="261" height="239"/><path class="cls-2" d="M90.29,126.38c2.19-6.07,4.65-12.06,6.48-18.23,1.39-4.69,1.4-9.44-1.61-13.89-5-7.43-6-16.08-6.82-24.72-.39-4,3.92-5.11,5.05-8.18,4.48-.35,8-3,11.65-5.13,3.88-2.29,7.72-4.63,12.2-5.49,3.93-.75,5.32,1,3.86,4.68-.75,1.89-1.75,3.69-2.76,5.78,2.6,0,4-1.66,5.76-2.4,10.06-4.23,16.2,1.26,14.8,10.38-1,6.28.38,12.57,2.75,18.56,4.07,10.31,2.78,13.3-7.86,17.06-7.37,2.61-13.85,6.38-18.91,12.43-4.11,4.92-4.09,7.34,1,11,4.13,3,6.06,6.46,4.47,11.49a5.3,5.3,0,0,0,.59,3.53l.41,2.86.52,1.14.48,2c-1.61,1.56-2,2.76-.5,5.07s5.17,5.94,1.9,8.48c-3.77,2.93-6.93,7.54-12.58,7.54a55.41,55.41,0,0,1-9.9-7.33,2.48,2.48,0,0,0-.67-.69l-1.33-1.05,0,0C91.4,151,88.95,139.16,90.29,126.38Zm17.37-28.29,1.38,1a1.28,1.28,0,0,0-.5-2c-2.14-3.45-5.78-5-9-7a24.74,24.74,0,0,1-2.22-3.26c-.65-1.36-2.12-3.08.09-4.22,1.73-.9,2.53.5,3.34,1.92,1.56,2.74,4.13,4.17,7.13,5,4.32,1.19,8.75,2.16,12.93,6.68-1.24-4.6-3.85-6.65-6.31-6.7-7.84-.17-11.66-7.81-18.63-9.35-.59-.13-1.15-1.17-1.4-1.9-1.41-4.14,1.37-10.24,5.6-12.4a11.35,11.35,0,0,1,.08,1.46c-.18,2.55-.31,5.31,2.36,6.58,2.93,1.39,5.84.24,8.55-1.2,1.19-.63,1.83-1.68,1.18-2.88-1.9-3.52-5.33-4.8-8.94-5.68-3.13-.76-5.75-.27-7.86,2.64-5.36,7.37-2.54,16.62,3.24,24.45Zm23.33-19c1.81-2.65,2.23-5.33-.58-7.58-2.37-1.9-5-1.27-7.11,1.44C129.94,71.82,130.23,72.05,131,79.09Zm-24.84-16.4c3.32-4.25,4.45-1,5.79,1.68.88-2.95.79-5.16-1.83-5.83C107.88,58,106.53,59.48,106.15,62.69Z"/><path class="cls-3" d="M120.37,139.77c1.59-5-.34-8.5-4.47-11.49-5.12-3.71-5.14-6.13-1-11,5.06-6.05,11.54-9.82,18.91-12.43,10.63-3.76,11.92-6.76,7.86-17.06-2.36-6-3.71-12.29-2.75-18.56,1.4-9.11-4.75-14.6-14.8-10.38-1.77.75-3.16,2.4-5.76,2.4,1-2.1,2-3.89,2.76-5.78,1.46-3.7.07-5.43-3.86-4.68-4.47.86-8.32,3.2-12.2,5.49-3.67,2.16-7.17,4.78-11.65,5.13a48.78,48.78,0,0,1,18.43-12.18A11.24,11.24,0,0,0,117.16,45c5.69-7.71,12.45-14.22,21.06-18.74,3.83-2,5.4-.86,6.09,3a99.62,99.62,0,0,1,1.49,21.86c-.27,6.42,2.06,10,8.38,12a71.44,71.44,0,0,1,24.45,13.1c3.43,2.79,3.51,5.21.38,8.17a28.49,28.49,0,0,1-17,7.51c-3.43.35-4.5,1.91-4.91,4.76-8.61-.41-9.9.55-12.06,8.75-.63,2.4-1.42,4.77-2.22,7.12-3.3,9.6-7.78,18.68-12.23,27.78-2.9,5.92-2.1,7.53,4.19,9A40.89,40.89,0,0,1,145,152.83c2.14,1.16,4.73,2,4.33,5.32a8,8,0,0,1-4.44,6.74c-1.18.59-2.43,1.07-3.64,1.6l-2.12.49-1.06.31-10.41-.13c-1.31-.79-3.84-.88-1.37-3.44,1.58-1.64,4.08-5.29,2.91-5.83-4-1.85-4.42-5.92-6.87-8.58l-.48-2-.52-1.14-.41-2.86A5,5,0,0,0,120.37,139.77Zm40.34-51a29.77,29.77,0,0,0,13.66-4.66c1.22-.79,2.87-1.68,2.75-3.26s-2-2.06-3.35-2.46c-4.26-1.25-8.59-2.31-12.85-3.57-3.83-1.13-5.14-.28-3.91,3.9.68,2.32.48,4.92.56,7.39C157.63,88,158.07,89.4,160.71,88.75ZM120.15,46.87c4.73.17,8.53.22,12.18,1.48,1.35.46,2.53.6,3-1.35,1.23-5.06,2.93-10,2.59-15.91C130.29,34.56,125.17,40,120.15,46.87Z"/><path class="cls-4" d="M141.29,166.48c1.22-.53,2.46-1,3.64-1.6a8,8,0,0,0,4.44-6.74c.4-3.32-2.19-4.16-4.33-5.32a40.89,40.89,0,0,0-10.33-3.52c-6.29-1.47-7.09-3.08-4.19-9,4.45-9.1,8.94-18.18,12.23-27.78.81-2.35,1.59-4.72,2.22-7.12,2.17-8.19,3.46-9.16,12.06-8.75.21.61.25,1.39.66,1.82,7.8,8.26,8.2,10.55,3.61,21.16a8.54,8.54,0,0,0-.35,1.44l-.14-.2.23,0-.5,2.29c-2.44,2.06-3.71,4.77-5.16,8.63l7.77-5.16,9.19-.21c-12.18,8-14.13,16.22-4.27,24,11.86,9.32,11.53,28.83-.72,38.69-12.18,5.53-23.41,2-34.41-3.61-.87-.45-1.71-1-2.57-1.44a21.3,21.3,0,0,1,3.93-6.65C136.3,173.52,141.28,171.6,141.29,166.48Z"/><path class="cls-3" d="M167.35,189.05c12.25-9.86,12.58-29.37.72-38.69-9.86-7.75-7.9-16,4.27-24,8.94-1.06,16.12,2.85,19.7,11,3.28,7.5,4.36,15.33,2.32,23.37-.86,3.37-.06,4,3.28,3,11.07-3.28,17-12.7,15.25-24.66-.36-2.44-.76-4.87-1.22-7.79,5.12,2.24,9.09,5.06,12,9.29,4.06,12.82,1.48,23.4-11.24,30.61l4.92,3c-6.47,3.71-12.88,5.19-19.59,4.43-3.28-.37-5.3-.59-3.7,3.59-3.86-.08-6.63-3.83-9.49-3.06-3.1.84-5.57,4-8.32,6.09l-2,1.51C172,187.53,170,189.46,167.35,189.05Z"/><path class="cls-2" d="M100.61,162.39a2.45,2.45,0,0,1,.67.69c-.68,2.12-2.19,3.66-3.48,5.4-3.89,5.25-9.72,8.55-13.53,13.85-7.88,5.84-17,3.23-25.61,3.36-2.75,0-7.38,2.57-8.72-2.51-1.1-4.19,2.7-10.41,7-12.2a8.16,8.16,0,0,1,3.37-.81c9.3.43,14.9-5.37,20.14-11.81,1.28-2.12,2.46-4.31,3.87-6.35,1.61-2.33,3-3.13,5.05.07,2.49,3.82,5.31,7.64,10,9.28l0,0Z"/><path class="cls-4" d="M174.3,186.89l2-1.51c2.75-2.13,5.22-5.26,8.32-6.09,2.86-.77,5.62,3,9.49,3.06-1.61-4.19.41-4,3.7-3.59,6.71.76,13.13-.72,19.59-4.43l-4.92-3c12.72-7.21,15.3-17.79,11.24-30.61,11.58,11.38,10,32.22-5.11,40.29a1.29,1.29,0,0,0,.77,1.61c2.81,1.46,3.24,2.55-.17,3.95-7.23,3-14.47,4.89-22.2,2a43.39,43.39,0,0,0-4.41-1.09c2.33,4.12.56,4.92-2.86,4.62A32.7,32.7,0,0,1,174.3,186.89Z"/><path class="cls-4" d="M122.36,149.31c2.45,2.66,2.87,6.73,6.87,8.58,1.18.54-1.32,4.19-2.91,5.83-2.47,2.55.06,2.65,1.37,3.44-3.22-.58-4.45,2.28-6.49,3.74-.8.57-1.82,1.08-1.41,2.29s1.56.95,2.5,1.17c2.36.55,5.47-1.51,7,2h-2c-2.66.7-6.09-1.67-8,2-1.63.22-4.32-.42-3.51,2.48s.5,7.07,5.51,6.49c2.58-1,2.49-2,0-3,2-2.87-.44-4.28-2-6h8c1.67,1.84.2,2.85-.92,4.15-1.47,1.73-1.92,3.56.72,4.8-8.53,2-17.13.79-25.71.51-.38,0-.72-1-1.09-1.48-.86-8,1.62-13.56,10.66-14.26.73-.06.45-1.06.22-1.67,5.65,0,8.81-4.6,12.58-7.54,3.27-2.55-.37-6.06-1.9-8.48S120.75,150.87,122.36,149.31Z"/><path class="cls-5" d="M99.31,161.36c-4.67-1.64-7.49-5.46-10-9.28-2.08-3.19-3.44-2.4-5.05-.07-1.41,2-2.59,4.23-3.87,6.35,0-2.41-1.12-4.48-1.93-6.65-3-8.12,1.13-20,8.51-24.56a5.33,5.33,0,0,1,3.3-.78C88.95,139.16,91.4,151,99.31,161.36Z"/><path class="cls-5" d="M111.18,170.41c.23.61.51,1.61-.22,1.67-9,.7-11.52,6.21-10.66,14.26-.86-2.81-2.42-4.22-5.69-3.9a88.69,88.69,0,0,1-10.34-.11c3.81-5.29,9.64-8.6,13.53-13.85,1.29-1.74,2.8-3.28,3.48-5.4A55.55,55.55,0,0,0,111.18,170.41Z"/><path class="cls-2" d="M127.3,176.35h2a9.17,9.17,0,0,1,5,1,21.3,21.3,0,0,0-3.93,6.65l-3.27,3.3c-2.64-1.23-2.2-3.07-.72-4.8,1.12-1.31,2.59-2.32.92-4.15Q127.3,177.35,127.3,176.35Z"/><path class="cls-6" d="M163.16,126.6l-7.77,5.16c1.45-3.86,2.72-6.57,5.16-8.63Z"/><polygon class="cls-6" points="161.05 120.84 160.82 120.89 160.96 121.09 161.05 120.84"/><path class="cls-6" d="M98.69,91.24c-5.78-7.83-8.6-17.09-3.24-24.45,2.11-2.91,4.74-3.4,7.86-2.64,3.6.87,7,2.16,8.94,5.68.65,1.2,0,2.25-1.18,2.88-2.71,1.44-5.62,2.59-8.55,1.2-2.67-1.27-2.53-4-2.36-6.58a11.35,11.35,0,0,0-.08-1.46c-4.23,2.15-7,8.26-5.6,12.4.25.73.81,1.77,1.4,1.9,7,1.54,10.78,9.18,18.63,9.35,2.46.05,5.07,2.1,6.31,6.7-4.18-4.52-8.61-5.49-12.93-6.68-3-.83-5.58-2.26-7.13-5-.81-1.42-1.61-2.82-3.34-1.92-2.21,1.15-.74,2.86-.09,4.22a24.74,24.74,0,0,0,2.22,3.26Z"/><path class="cls-6" d="M131,79.09c-.77-7-1.05-7.27-7.69-6.14,2.1-2.71,4.74-3.34,7.11-1.44C133.22,73.76,132.81,76.44,131,79.09Z"/><path class="cls-6" d="M106.15,62.69c.38-3.21,1.72-4.72,4-4.16,2.63.67,2.71,2.88,1.83,5.83C110.61,61.67,109.48,58.44,106.15,62.69Z"/><path class="cls-6" d="M107.66,98.09l-9-6.85.85-1.15c3.22,2.06,6.87,3.57,9,7Z"/><path class="cls-4" d="M120.37,139.77a5,5,0,0,1,.59,3.53A5.3,5.3,0,0,1,120.37,139.77Z"/><path class="cls-6" d="M108.54,97.11a1.28,1.28,0,0,1,.5,2l-1.38-1Z"/><path class="cls-4" d="M121.36,146.17l.52,1.14Z"/><path class="cls-5" d="M100.61,162.39l-1.33-1.05Z"/><path class="cls-7" d="M160.71,88.75c-2.64.66-3.08-.72-3.14-2.66-.08-2.48.13-5.07-.56-7.39-1.23-4.18.08-5,3.91-3.9,4.26,1.25,8.59,2.31,12.85,3.57,1.37.4,3.23.8,3.35,2.46s-1.53,2.47-2.75,3.26A29.77,29.77,0,0,1,160.71,88.75Z"/><path class="cls-7" d="M120.15,46.87c5-6.9,10.14-12.31,17.77-15.77.34,5.87-1.37,10.85-2.59,15.91-.47,1.94-1.66,1.81-3,1.35C128.68,47.09,124.88,47,120.15,46.87Z"/><path class="cls-2" d="M134.3,177.35a9.17,9.17,0,0,0-5-1c-1.51-3.49-4.62-1.44-7-2-.94-.22-2.11,0-2.5-1.17s.61-1.72,1.41-2.29c2-1.46,3.27-4.32,6.49-3.74l10.41.13,1.06-.31,2.12-.49C141.28,171.6,136.3,173.52,134.3,177.35Z"/><path class="cls-4" d="M139.17,167l-1.06.31Z"/><path class="cls-2" d="M119.31,178.37c1.55,1.7,4,3.11,2,6q0,1.48,0,3c-5,.58-4.73-3.69-5.51-6.49s1.87-2.26,3.51-2.48Z"/><path class="cls-2" d="M127.3,176.35q0,1,0,2h-8l0,0C121.21,174.68,124.63,177.05,127.3,176.35Z"/><path class="cls-2" d="M121.29,187.31q0-1.48,0-3C123.78,185.34,123.87,186.33,121.29,187.31Z"/></svg>