<svg id="Capa_1" data-name="Capa 1" xmlns="http://www.w3.org/2000/svg" viewBox="0 0 261 239"><defs><style>.cls-1{fill:#e3e37f;}.cls-2{fill:#38303a;}.cls-3{fill:#f0f1f4;}.cls-4{fill:#daaac3;}.cls-5{fill:#c6d3d8;}.cls-6{fill:#d0d9dd;}.cls-7{fill:#d7dbde;}.cls-8{fill:#443a43;}.cls-9{fill:#525055;}</style></defs><title>Mesa de trabajo 4g</title><rect class="cls-1" width="261" height="239"/><path class="cls-2" d="M77.79,73.39c-.42-4.51,3.34-6.74,5.58-9.64,2.83-3.66,5.22-7.05,6.35-11.88,2.42-10.34,9.67-17.62,18.18-23.57,3.19-2.23,5.14-1.05,6,2.7a61,61,0,0,1,1.49,13.36c0,2.27.27,3.83,3.09,3.94a14,14,0,0,1,4.77,1.35c2.28,1,3.56.35,4.87-1.74A60.15,60.15,0,0,1,137,36.48c4-3.89,6.46-3.37,8.26,2,2.78,8.35,3.09,17,2.05,25.66-.6,5-1,9.87,1.67,14.52,5.49,9.62,2.25,17.66-5.18,24.41-2.81,2.56-2.47,4.3-.71,7,4.42,6.84,10.3,12.22,16.79,16.92,15.47,11.22,26.84,25.25,30.94,44.33.66,3.09,1.93,2.26,3.75,1.23,10.86-6.14,14.93-17.93,10.29-29.59-1.92-4.8-5.06-8.88-8.23-14,6.61.7,12.45,1,17.29,5.05,9.59,11,12.2,22.77,3.3,35.84l6.46.72c-5.4,8.35-12.82,13-21.93,15.68l3.12,3.46c-2.67,1.48-5.4,1-8,1.41l-1.74-.18c-2.27-1.19-4-1.5-4.5,1.91a37,37,0,0,1-2,6.12L186,202.45c-.26-1.1-.41-1.69-.53-2.29-3-14.93-12.7-22.9-27.91-23.19-4.65-.09-9.31-.4-13.95-.8-4-.35-7.3-2.1-9-6-1.15-12.58,8.38-14,18-16-9.7-3.16-18.35,1-21.74,9.79-.77,2-1.44,4-2.16,6.05-4.38,3.72-8.76,7.45-14.82,8.08.42-6.81,1.38-13.63,1.13-20.41-.37-9.95,1.09-18.85,9.23-25.65,1.54-1.29,3.24-3.47,2-5.63s-3.56-.75-5.46-.4c-5.56,1-7.31-.57-7.16-6.29.13-4.89,1.72-9.17,5.47-12.39a80.33,80.33,0,0,1,9.08-7c8.73-5.56,9.93-11.33,2.53-21.31-3.26-4.39-5.86-8.74-7-14.06a32.23,32.23,0,0,0-2.48-7c-1.89-4-4.78-4.84-8.58-2.66a59.46,59.46,0,0,0-5.46,4c-1.15-2.73,2.93-5,.7-6.58-2.67-1.9-5.73.19-8.39,1.49a40.39,40.39,0,0,0-15.56,13.7C82.28,70.16,80.85,72.67,77.79,73.39ZM94.46,52.86c4.32-2.7,10.81-2.13,13.33-5.87s2.12-9.44,1.13-15.39C101.63,37.7,96.45,44,94.46,52.86Zm47.06,10.66c.19-4.12.59-7.36.42-10.57-.18-3.65,1.25-9.24-2.47-10.23s-5.16,4.69-7.51,7.53a14.86,14.86,0,0,0-.79,1.26,1.68,1.68,0,0,0,.45,2.57C135.15,56.48,137.71,59.94,141.53,63.52Z"/><path class="cls-3" d="M77.79,73.39c3.05-.72,4.49-3.23,6.09-5.54a40.39,40.39,0,0,1,15.56-13.7c2.65-1.3,5.72-3.39,8.39-1.49,2.22,1.59-1.85,3.85-.7,6.58a59.46,59.46,0,0,1,5.46-4c3.81-2.18,6.69-1.3,8.58,2.66a32.23,32.23,0,0,1,2.48,7c1.15,5.33,3.75,9.67,7,14.06,7.41,10,6.2,15.76-2.53,21.31a80.33,80.33,0,0,0-9.08,7c-3.74,3.22-5.33,7.5-5.47,12.39-.15,5.72,1.59,7.31,7.16,6.29,1.9-.35,4.18-1.8,5.46.4s-.44,4.34-2,5.63c-8.14,6.81-9.6,15.7-9.23,25.65.25,6.78-.71,13.61-1.13,20.41l-.06.06-1.94-.06c-3.47-3.28-7.23-6.18-9.62-10.6-1.55-2.86-2.57-6.17-5.18-8.42-5.14-15.83-7.81-32-6.8-48.68,3.23,2.21,6.41,1.66,9-.86,4.34-4.28,8.36-8.87,12.52-13.33,3.45-2.38,7-4.59,11.39-5.37-2-3.39-4.9-3.18-7.67-3.15-3.14,0-6.28.3-9.42.48-4.78.28-8.39-1.43-10.33-6,.74-2.9,4.1-2.23,5.63-4.14,1.26-1.56,3.24-3.22.67-4.79-3.12-1.91-7.27-3.39-10.18-.88s0,5.3,1.79,7.66a17.39,17.39,0,0,1,1.18,2.14c-.17.8,0,1.76-1,2.19-5,.33-5.39-3.84-6.8-8.2-.46,5.21.11,8.66,4.86,9.8,2,1.79.51,4.18,1.09,6.22-3.05,2.45-4.68,6-6.94,9.06-5.4-6.72-9.34-14.1-10.69-22.74a5.37,5.37,0,0,1,.48-3.82c.71-.44,1.81-.3,2.07-1.4Zm38.86-5c-1.56.34-2.91.94-3,2.78s.85,3.15,2.9,3.24a2.71,2.71,0,0,0,3.05-2.61C119.8,69.77,118.38,68.85,116.65,68.34Zm-20.27.56c1.31-.44,2.53-1,2.55-2.91,0-1.58-.06-3.07-2.16-3.12a2.71,2.71,0,0,0-2.93,2.67C93.61,67.3,94.6,68.29,96.38,68.9Z"/><path class="cls-3" d="M134.59,170.14c1.72,3.93,5,5.68,9,6,4.64.4,9.29.71,13.95.8,15.21.29,24.87,8.26,27.91,23.19.12.59.27,1.18.53,2.29l2.58-3.43c5,2.39,6.57.82,5.3-4.41a3.48,3.48,0,0,1,1.21-3.62l1.74.18c0,1.43.81,2.34,1.61,3.44,2.28,3.14,4.07,6.48-.6,9.26a66.24,66.24,0,0,1-7.93.21c-2.84-.25-5.18-.06-6.87,2.64-1,1.56-2.78,1.64-4.47,1.63l-36.81-.18c-1.71-4.2-.12-8.1,1.11-12l.84-.22-.27-.43-.63.58c-4.52,3.14-2.51,7.88-3,12l-6,0c0-4.32-.29-8.67,1.17-12.86l1.78-.59c-.1-.12-.24-.37-.29-.35-.58.2-1.15.43-1.72.66-3.94,3.74-2.65,8.62-2.86,13.17-2.7.55-4.08-.39-4-3.3.22-6.24,2-11.59,8-14.72a244.12,244.12,0,0,1,26.49,5.22c-2-2.45-4-2.73-5.84-3.33-4.26-1.38-8.68-2.49-12.67-4.46C136.16,183.79,132.05,177.66,134.59,170.14Zm30.14,25.64.33-.15-.33-.16Z"/><path class="cls-3" d="M197.84,203.89c4.67-2.78,2.88-6.12.6-9.26-.8-1.1-1.66-2-1.61-3.44,2.6-.37,5.33.07,8-1.41l-3.12-3.46c9.1-2.69,16.53-7.33,21.93-15.68l-6.46-.72c8.9-13.07,6.29-24.85-3.3-35.84,9.91,3.55,15.38,11.11,17.83,20.83A27.6,27.6,0,0,1,229,175.55c-2.87,5.29,3.55,1.08,4.32,4.19a33.36,33.36,0,0,1-27,15.91c-.48,2.52,2.66,1.8,2.82,3.84A25.35,25.35,0,0,1,197.84,203.89Z"/><path class="cls-3" d="M113.86,178.09c6.07-.63,10.44-4.36,14.82-8.08l3,16c-3.29,4.29-4.36,9.6-6.51,14.41-3.52,7.86-3.42,7.91-11.9,7.88-1.16,0-2.32-.12-3.49-.19q0-6,.08-12l1-1,.15-.37-.2.31-1,1c-2.82,3.68-1.8,8-1.93,12.08l-5.08,0c-.93-4.07.19-8.16.49-13.5-3.38,5-2.2,9.34-2.42,13.47l-3-.08c0-2.48-.05-5,0-7.43,0-7.67,2-9.75,9.94-10.45,2.39,1.7,3.35.13,3.84-1.85.84-3.36,1.48-6.77,2.21-10.16ZM106,193.66l-.31-.21-.05.33Z"/><path class="cls-3" d="M81.84,208.08c-1.6.5-2.67.41-3.39-1.57-2.63-7.31,2.19-15.49,10-15.89,3.59-.18,5-1.49,5.46-4.81.59-4.24,1.48-8.44,2.24-12.66,1.06-.85.3-2.66,1.95-3.42,3.71,3.53,6.85,7.94,12.22,9.38-.23,3.19-.43,6.39-2.25,9.2-8-.22-10.74,2-12.65,9.49-.92,3.59,0,6.88.48,10.3l-5.06,0c-.81-4-.19-8,.09-12,.73-.73,2.74-.51,1.85-2.48-1.49.13-1.72,1.26-1.95,2.4-3.23,3.6-1.59,8-1.92,12a14.91,14.91,0,0,1-6-.08c.15-5-1-10.2,4.37-15.06-4.67.9-5.18,3.33-5.33,5.72C81.69,201.81,81.84,204.95,81.84,208.08Z"/><path class="cls-4" d="M86,101.2c2.26-3.06,3.89-6.6,6.94-9.06,6.33,1,13.38-1.32,18.77,4.05-4.16,4.46-8.18,9.05-12.52,13.33-2.56,2.52-5.74,3.07-9,.86C87.26,108.06,86.18,104.84,86,101.2Z"/><path class="cls-5" d="M131.69,186.05l-3-16c.72-2,1.39-4.06,2.16-6.05,3.39-8.76,12-12.95,21.74-9.79-9.61,2-19.14,3.4-18,16-2.54,7.52,1.57,13.65,9.27,17.45,4,2,8.41,3.08,12.67,4.46,1.87.6,3.85.89,5.84,3.33a244.12,244.12,0,0,0-26.49-5.22C135.62,187.63,134.11,186.38,131.69,186.05Z"/><path class="cls-5" d="M110.27,179.11c-5.37-1.43-8.51-5.84-12.22-9.38-1.65.76-.89,2.57-1.95,3.42l1-14.09c2.61,2.25,3.64,5.56,5.18,8.42,2.39,4.42,6.15,7.32,9.62,10.6Z"/><path class="cls-6" d="M95.85,208.1c-.47-3.41-1.4-6.71-.48-10.3,1.92-7.49,4.65-9.71,12.65-9.49l-.26,1.85c-7.91.7-9.9,2.78-9.94,10.45,0,2.48,0,5,0,7.43Z"/><path class="cls-6" d="M135,195.29c-1.47,4.19-1.16,8.54-1.17,12.86l-1.92,0c.21-4.55-1.08-9.43,2.86-13.17Z"/><path class="cls-7" d="M100.87,208.11c.22-4.13-1-8.47,2.42-13.47-.31,5.34-1.43,9.42-.49,13.5Z"/><path class="cls-7" d="M81.84,208.08c0-3.13-.15-6.27.06-9.39.16-2.38.66-4.82,5.33-5.72C81.83,197.83,83,203.06,82.86,208Z"/><path class="cls-6" d="M107.88,208.16c.13-4.11-.89-8.4,1.93-12.08l.06.06q0,6-.08,12Z"/><path class="cls-7" d="M88.86,208.11c.33-4.06-1.31-8.44,1.92-12l.1.09c-.29,4-.91,8-.09,12Z"/><path class="cls-7" d="M139.84,208.1c.45-4.14-1.55-8.88,3-12l.06.07c-1.23,3.93-2.82,7.83-1.11,12Z"/><path class="cls-2" d="M77.91,73.24c-.26,1.1-1.36,1-2.07,1.4C76.38,74,76,72,77.91,73.24Z"/><path class="cls-4" d="M94.46,52.86c2-8.83,7.17-15.16,14.45-21.26,1,5.95,1.36,11.69-1.13,15.39S98.79,50.16,94.46,52.86Z"/><path class="cls-4" d="M141.53,63.52c-3.82-3.58-6.38-7-9.9-9.44a1.68,1.68,0,0,1-.45-2.57,14.86,14.86,0,0,1,.79-1.26c2.36-2.84,3.94-8.49,7.51-7.53S141.77,49.3,142,53C142.11,56.16,141.72,59.4,141.53,63.52Z"/><path class="cls-3" d="M195.09,191a3.48,3.48,0,0,0-1.21,3.62c1.27,5.23-.32,6.8-5.3,4.41a37,37,0,0,0,2-6.12C191.11,189.51,192.82,189.81,195.09,191Z"/><path class="cls-8" d="M111.75,96.19c-5.39-5.37-12.44-3-18.77-4.05-.59-2,.87-4.43-1.09-6.22l1.94-1.6c1-.42.8-1.39,1-2.19h.92c1.93,4.6,5.55,6.3,10.33,6,3.14-.18,6.28-.45,9.42-.48,2.76,0,5.71-.24,7.67,3.15C118.73,91.6,115.2,93.81,111.75,96.19Z"/><path class="cls-9" d="M95.73,82.14H94.8A17.39,17.39,0,0,0,93.63,80c-1.74-2.36-4.55-5.28-1.79-7.66s7.06-1,10.18.88c2.57,1.57.59,3.23-.67,4.79C99.82,79.91,96.47,79.24,95.73,82.14Z"/><path class="cls-9" d="M116.65,68.34c1.73.51,3.15,1.43,3,3.41a2.71,2.71,0,0,1-3.05,2.61c-2-.09-3-1.27-2.9-3.24S115.09,68.69,116.65,68.34Z"/><path class="cls-9" d="M96.38,68.9c-1.78-.61-2.78-1.6-2.53-3.36a2.71,2.71,0,0,1,2.93-2.67c2.1.05,2.17,1.54,2.16,3.12C98.91,67.85,97.69,68.46,96.38,68.9Z"/><path class="cls-9" d="M93.83,84.32l-1.94,1.6c-4.75-1.14-5.32-4.59-4.86-9.8C88.44,80.48,88.78,84.65,93.83,84.32Z"/><path class="cls-6" d="M134.75,195c.57-.23,1.14-.46,1.72-.66.05,0,.19.23.29.35l-1.78.59Z"/><path class="cls-7" d="M142.81,196.08l.63-.58.27.43-.84.22Z"/><polygon class="cls-5" points="164.74 195.78 164.74 195.47 165.07 195.63 164.74 195.78"/><polygon class="cls-7" points="106.03 193.66 105.66 193.78 105.71 193.45 106.03 193.66"/><path class="cls-6" d="M109.8,196.08l1-1,.06.06-1,1Z"/><path class="cls-6" d="M110.8,195.09l.2-.31-.15.37Z"/><path class="cls-7" d="M90.78,196.07c.23-1.13.46-2.26,1.95-2.4.89,2-1.12,1.75-1.85,2.48Z"/></svg>