<svg id="Capa_1" data-name="Capa 1" xmlns="http://www.w3.org/2000/svg" viewBox="0 0 261 239"><defs><style>.cls-1{fill:#aaa877;}.cls-2{fill:#38303a;}.cls-3{fill:#f0f1f4;}.cls-4{fill:#c6d3d8;}.cls-5{fill:#443a43;}.cls-6{fill:#e5e8ec;}.cls-7{fill:#d0d9dd;}.cls-8{fill:#daaac3;}.cls-9{fill:#525055;}.cls-10{fill:#79afaf;}.cls-11{fill:#d7dbde;}</style></defs><title>Mesa de trabajo 5g</title><rect class="cls-1" width="261" height="239"/><path class="cls-2" d="M126.9,102.27c-4.29.49-7.15-1.15-7.67-5.63a55.52,55.52,0,0,0-9.3-24.6c-5.6-8.54-7.63-18.71-8-29-.22-6.05,1.91-7.37,7.61-5,4.35,1.8,8,4.72,11.71,7.55,1.18.9,2.27,3.84,4.25,1.34,1.61-2,5.53-3,3.37-7.19A50.46,50.46,0,0,1,124.45,26c-1.55-8.14,1.17-10.9,9.08-8.39,10.12,3.2,18.94,8.89,26.86,15.89a11.15,11.15,0,0,0,6.53,3c4.27.48,8.44,2.1,12.7,2.4,6.69.48,8.85,4.72,10,10.3,1.56,7.72,2.51,15.51.73,23.27-.71,3.09,1.13,4.76,2.5,6.64,6.12,8.39,11.25,17.22,14.05,27.34,8.83,31.92-10,59.62-31.59,73-11.95,7.39-24.83,11.07-39,9.07a56.18,56.18,0,0,0-6.48-.19c-.35-.21-1.06-.3-.34-.89a.73.73,0,0,1,.48-.06c3,.32,3.31-1.53,4.18-4,1.86-5.28-1.64-8.7-3.23-12.82,6.49-6,10-13.87,13.82-21.52,3-6,5.55-12.38,11.15-16.68,3.33,2.89,4,7.08,5.41,10.94,1.18,5.3.55,10.73,1.06,16.08,1.61-6,2.57-11.89.47-17.88l-.88-6.06,5.9-1.33a9.4,9.4,0,0,0,8.55-.64,33.61,33.61,0,0,0,13.56-14.84c.56-1.21,1.54-2.62.72-3.73s-2.51-.77-3.75-.34c-3.8,1.29-7.5.65-11.3,0-3.36-.62-5.57-1.12-3.21-5.37,1.57-2.83,2-6.27,3.08-9.41.85-2.55,1.85-5.33,4.49-6.27,4.38-1.55-2.46-1.14-.28-2.08,1.4-1.41,2.56-2.85-.79-2.81-4.24.05-4.48-2.41-3.83-5.63.76-3.74,1.58-7.47,2.13-11.24,1.11-7.6-1-11.5-7.85-14.91q-8.47-4.19-17-8.21c-12.63-6-24.41-.6-22.31,15.51.09.66.1,1.32.15,2l-.78.85c-.89-.71-1.84-1.36-2.66-2.15-5.1-5-5.33-5-8.89,1.2-.32-2.89.53-5.58,1.49-8.24.51-1.4,1.35-2.79,0-4.15C115.81,50,112.51,46,108,43.28c-2.34-1.41-4.19-.93-3.83,2a69.06,69.06,0,0,0,11.74,31.46c1.41-1.93-.21-4.2,1.82-5.25l4,17.74.85,3.23.33,1.85c.07,1.24.93,1.27,1.85,1.21h0l0,1.19c-.71.11-2.38-1-1.61,1C123.91,99.6,126.42,100.13,126.9,102.27ZM148.18,36c-5-6-10.35-10.8-16.87-14.15-2.9-1.48-4.41-.32-3.82,3.09.82,4.77,2.71,9.16,4.41,13.64.74,2,1.78,2,3.42,1.14C139.16,37.8,143.36,37,148.18,36Z"/><path class="cls-3" d="M155.87,132.43c-5.61,4.3-8.12,10.67-11.15,16.68-3.86,7.66-7.34,15.55-13.82,21.52-2.1,0-3.66-1.44-5.5-2.16-9.95-3.93-19.55-4.13-29.12,2.59,2.9.77,5.67.37,7.64,2.53-13.69,5.75-18.64,10.23-19.51,17.56,5.15-3.48,5.88-3.72,10.22-3.53-9.35,18.79-9.13,26.38,1.09,36.86-7.25-.2-12-4.55-15.6-10.12a31.58,31.58,0,0,1-4.72-13c-.79-5.62-1-5.6-6-2.37-1.47-5.36-.11-10.11,1.82-14.87s5.86-8.17,9.32-12c-2.29-1.08-3.89.95-5.72.27l0,0c2.31-5.31,7.51-7.89,11.2-11.9,5.14-2,10.32-3.75,16-3.26l4.77.26c3.33,1.45,7,1.75,10.29,3.46,5.68,2.94,6.14,2.7,8-3.68.9-3.14.88-6.84,7-5.1-5.3-4.23-9.73-2.3-14-1.53-8.48,1.54-10.71.11-12.35-8.23-1.34-6.82-2.63-13.65-5.51-20-1.5-3.13-2.92-6.29-4.51-9.37-2.09-4-1.37-6.32,2.78-8.25,6.09-2.83,15.32.75,19.1,7.62,1,1.84,2.24,3.73,2.28,6l.65,1.11.21.16c1.24,5.33,1.18,10.82,1.09,17.23,3-4.1,1.55-8.69,5-11.28,2.49-1.87,4.18-3.6-.68-4.47-1.49-.27-1.34-1.74-1.05-2.89a14.28,14.28,0,0,1,2.8-5.78c.66-.51,1.29-1,2-1.51,4.74-3.29,8.14-1.88,9.06,3.7a11.07,11.07,0,0,0,4.06,7.12C147.3,125.32,153,127.2,155.87,132.43ZM136,119c-.67.34-1.69.62-1.78,1.76-.08.93.67.95,1.32.82.95-.19,2-.43,2-1.65C137.56,119.1,136.92,118.93,136,119Zm-21.87,18.82-.65,6.79C115.24,142.67,114.83,140.45,114.13,137.82Zm-2.57,9.44.35-.27a4.27,4.27,0,0,0-.73-.33c-.09,0-.23.16-.34.25Zm17.63-28.89.17.35.17-.35Z"/><path class="cls-3" d="M123,94.28l-.33-1.85c.41-3.22,2.43-1.06,3.69-1,2.72.1,5.6.53,6.32-3.08.52-2.55,1.64-5.92-.67-7.48-2.76-1.87-5.21.94-7.28,2.74a8.35,8.35,0,0,0-2.91,5.61l-4-17.74q0-2.71.07-5.42c3.56-6.16,3.79-6.18,8.89-1.2.81.79,1.77,1.44,2.66,2.15l1.12.2-.34-1c0-.66-.06-1.33-.15-2-2.1-16.12,9.68-21.47,22.31-15.51q8.55,4,17,8.21c6.89,3.41,9,7.3,7.85,14.91-.55,3.77-1.37,7.5-2.13,11.24-.65,3.22-.41,5.68,3.83,5.63,3.35,0,2.19,1.4.79,2.81-4.56,4.29-10.46,7.78-9,15.57a1.81,1.81,0,0,1-1.51,2.23,2.87,2.87,0,0,1-3-1.06c-7.58-8.82-16-9.72-24.34-2.71-5.2,0-10.36-.17-14.9-3.22-.48-2.14-3-2.67-3.7-4.54-.76-2,.9-.94,1.61-1,6.07,4,13.61,4.2,15.14-.34s4.61-5.84,8-7.7c1.7-.94,3.47-2,4.17-4,.82-.48,1.15-1.32.46-1.89-.53-.45-1,.42-1.32.9a20.1,20.1,0,0,1-10.31,5.65c-1.72.37-2.17.33-1.72,2.62.8,4-2.65,6.9-6.9,6.12-2.56-.47-5-1.68-7.47-2.56h0ZM140.14,62.6c1.67,3.17,4.26,4.23,7.46,2.18,2.42-1.55,2-4.44-.68-7.18C147.51,64.69,146.8,65.19,140.14,62.6ZM121.08,77.33c2.47,2.93,4.49,3.76,6.82,1.58,2.06-1.93,1.32-4.55-1.81-7.06C127.56,78.47,127.43,78.66,121.08,77.33Z"/><path class="cls-4" d="M102,157.26c-5.64-.48-10.82,1.3-16,3.26-5.34-6.55-12.31-10.35-20.37-12.66-5.29-1.51-6.1-4.74-4.36-9.78,4-11.76,13.39-12.34,23.82-3.87,4.26,3.46,5.31,2.31,7.13-1.72s6.1-6.1,8-10.11c2.88,6.4,4.17,13.23,5.51,20,1.63,8.34,3.87,9.77,12.35,8.23,4.25-.77,8.68-2.7,14,1.53-6.17-1.74-6.15,2-7,5.1-1.83,6.39-2.29,6.63-8,3.68-3.29-1.7-7-2-10.29-3.46,1.34-3.17-1.77-3.23-3-3.44C101.57,153.72,102,155.83,102,157.26Z"/><path class="cls-5" d="M95.72,224.48C85.5,214,85.27,206.41,94.63,187.62c-4.34-.2-5.06.05-10.22,3.53.87-7.32,5.82-11.81,19.51-17.56-2-2.16-4.74-1.76-7.64-2.53,9.57-6.73,19.17-6.52,29.12-2.59,1.83.72,3.39,2.14,5.5,2.16,1.59,4.12,5.08,7.54,3.23,12.82-.87,2.47-1.14,4.32-4.18,4a.73.73,0,0,0-.48.06c-.72.6,0,.68.34.89-5.92,1.57-12,2.38-17.72,4.91a46.55,46.55,0,0,0-11.13,6.58c-7.66,6.39-9.12,12.47-5.48,22.17A9.72,9.72,0,0,1,95.72,224.48Z"/><path class="cls-6" d="M141.8,105.49c8.34-7,16.77-6.11,24.34,2.71a2.87,2.87,0,0,0,3,1.06,1.81,1.81,0,0,0,1.51-2.23c-1.46-7.79,4.44-11.29,9-15.57-2.19.94,4.65.53.28,2.08-2.65.94-3.65,3.72-4.49,6.27-1,3.14-1.51,6.57-3.08,9.41-2.35,4.25-.15,4.76,3.21,5.37,3.8.7,7.5,1.34,11.3,0,1.24-.42,2.94-.76,3.75.34s-.16,2.51-.72,3.73a33.61,33.61,0,0,1-13.56,14.84,9.4,9.4,0,0,1-8.55.64c-2.34-2.75-4.65-5.53-7-8.25-1-1.1-2.16-1.6-3.47-.58-1.51,1.18,0,2,.48,2.92,1.26,2.47,3.48,4.4,4.11,7.24l.88,6.06c-.23.84-.58,1.58-1.53,1.8-1.38-3.86-2.08-8-5.41-10.94-2.88-5.23-8.56-7.11-12.85-10.66a11.07,11.07,0,0,1-4.06-7.12c-.92-5.58-4.32-7-9.06-3.7-.68.47-1.32,1-2,1.51l-.12-1.11c2-5,6.27-3.67,10.06-3.5C139.8,108,142.07,108.92,141.8,105.49Z"/><path class="cls-7" d="M127.81,111.36l.12,1.11a14.29,14.29,0,0,0-2.8,5.78c-.29,1.15-.44,2.62,1.05,2.89,4.86.88,3.18,2.6.68,4.47-3.46,2.59-2,7.18-5,11.28.09-6.41.15-11.9-1.09-17.23,1.87-.21,2.76-1.3,3.2-3.12C124.5,114.34,125.38,112.23,127.81,111.36Z"/><path class="cls-3" d="M74.85,172.38l0,0Z"/><path class="cls-7" d="M120.57,119.5l-.65-1.11Z"/><path class="cls-8" d="M117.84,66.06q0,2.71-.07,5.42c-2,1-.41,3.32-1.83,5.25a69.06,69.06,0,0,1-11.74-31.46c-.36-2.91,1.49-3.4,3.83-2,4.47,2.7,7.78,6.68,11.33,10.39,1.31,1.36.47,2.75,0,4.15C118.37,60.47,117.51,63.16,117.84,66.06Z"/><path class="cls-8" d="M148.18,36c-4.82,1-9,1.82-12.87,3.73-1.64.82-2.68.82-3.42-1.14-1.69-4.48-3.59-8.88-4.41-13.64-.58-3.41.93-4.58,3.82-3.09C137.83,25.18,143.17,30,148.18,36Z"/><path class="cls-5" d="M121.79,89.21a8.35,8.35,0,0,1,2.91-5.61c2.07-1.8,4.52-4.61,7.28-2.74,2.31,1.56,1.19,4.94.67,7.48-.73,3.61-3.6,3.18-6.32,3.08-1.26,0-3.28-2.21-3.69,1Z"/><path class="cls-9" d="M124.84,95.5c2.48.88,4.91,2.09,7.47,2.56,4.25.78,7.71-2.08,6.9-6.12-.45-2.29,0-2.24,1.72-2.62a20.1,20.1,0,0,0,10.31-5.65l.86,1c-.71,2-2.48,3.06-4.17,4-3.36,1.86-6.49,3.29-8,7.7s-9.07,4.37-15.14.34Z"/><path class="cls-3" d="M161.93,135.51c-.63-2.84-2.86-4.76-4.11-7.24-.45-.88-2-1.73-.48-2.92,1.31-1,2.52-.52,3.47.58,2.37,2.72,4.68,5.5,7,8.25Z"/><path class="cls-4" d="M161.27,143.37c1-.22,1.3-1,1.53-1.8,2.1,6,1.14,11.93-.47,17.88C161.82,154.1,162.45,148.67,161.27,143.37Z"/><path class="cls-9" d="M123,94.28l1.85,1.21C123.89,95.56,123,95.53,123,94.28Z"/><path class="cls-10" d="M102,157.26c0-1.43-.48-3.54,1.72-3.18,1.27.21,4.38.27,3,3.44Z"/><path class="cls-6" d="M136,119c.92-.07,1.55.1,1.53.93,0,1.22-1,1.47-2,1.65-.65.13-1.4.11-1.32-.82C134.31,119.61,135.33,119.34,136,119Z"/><path class="cls-11" d="M114.13,137.82c.7,2.63,1.11,4.85-.65,6.79Z"/><path class="cls-11" d="M111.56,147.25l-.73-.35c.11-.09.25-.28.34-.25a4.27,4.27,0,0,1,.73.33Z"/><polygon class="cls-7" points="129.2 118.36 129.53 118.36 129.36 118.71 129.2 118.36"/><path class="cls-9" d="M140.14,62.6c6.66,2.6,7.37,2.09,6.78-5,2.71,2.73,3.1,5.62.68,7.18C144.4,66.83,141.8,65.76,140.14,62.6Z"/><path class="cls-9" d="M121.08,77.33c6.36,1.33,6.48,1.14,5-5.49,3.13,2.51,3.87,5.13,1.81,7.06C125.57,81.09,123.55,80.26,121.08,77.33Z"/><path class="cls-9" d="M151.24,83.66c.35-.48.79-1.35,1.32-.9.69.58.36,1.41-.46,1.89Z"/><path class="cls-2" d="M130.16,66.16l.34,1-1.12-.2Z"/></svg>