<svg id="Capa_1" data-name="Capa 1" xmlns="http://www.w3.org/2000/svg" viewBox="0 0 261 239"><defs><style>.cls-1{fill:#cd6e6f;}.cls-2{fill:#38303a;}.cls-3{fill:#f0f1f4;}.cls-4{fill:#eceef1;}.cls-5{fill:#c6d3d8;}.cls-6{fill:#e5e8ec;}.cls-7{fill:#d0d9dd;}.cls-8{fill:#daaac3;}.cls-9{fill:#443a43;}.cls-10{fill:#d7dbde;}</style></defs><title>Mesa de trabajo 6g</title><rect class="cls-1" width="261" height="239"/><path class="cls-2" d="M4.56,172.48c-.77-.47-2.27-1.53-.41-1.73,23-2.58,36.09-18.93,49.46-35Q59.2,129,65.09,122.57c10.25-11.2,22.44-14.74,37-9.45,5.61,2,11.37,3.72,17.48,3.68,5.71,0,10.84-1.3,15-5.57,2.09-2.16,2.69-3.73-.35-5.84A65.46,65.46,0,0,1,119.9,91.56c-2.47-3.18-4.07-6.45-2.51-10.54,5.31-13.92,3.32-28.87,6.08-43.15.82-4.25,1.75-8.48,3.83-12.32,2.26-4.17,4.75-4.58,8.31-1.35,4.15,3.76,6.8,8.61,9.06,13.62,1.36,3,2.74,4.26,6.38,3.31,3.34-.87,4.57-2,4.36-5.57-.3-5.13-.2-10.32,1.66-15.28,2-5.25,4.42-6.11,9-2.77,6.44,4.71,10.87,11.19,14.94,17.89a59.24,59.24,0,0,1,6.91,14.88,30.81,30.81,0,0,0,6.45,11.66c5.78,6.88,4.58,14,1.25,21.33-.22-5.37-.16-11.15-6.05-13.68-4.49-1.92-6.57-5.28-8.1-9.45-1.42-3.88-2.52-7.91-4.95-11.36-3.46-4.92-9.69-7-16-5.06-5.62,1.69-5.43,6.44-5.68,11,0,.53.52,1.36-.6,1.51-1.51-2.15-3-4.35-4.55-6.43A6.23,6.23,0,0,0,143,47.46c-5.91,1.22-11.39,7.22-11.69,13.33-.21,4.14.16,8.31.32,12.46a14,14,0,0,1-2.29,8.5c-3.73,5.68-3.72,8.58.23,14a32.9,32.9,0,0,0,10.59,9.72c10.2,5.57,13.51,14.94,14.47,25.59.34,3.72-.06,7.64-4.24,9.23-3.88,1.48-6.09-1.48-8.38-3.94-1-1-1.77-2.91-3.47-2.22s-1.89,2.62-1.93,4.3c-.13,5.89,1.46,11.47,5.48,15.62,5.35,5.52,7.06,11.4,4.47,18.57-1.81,4.45-.65,9.36-2.09,13.87-4.79-.34-7.94-3-10.1-7.09a31.35,31.35,0,0,0-6-8.52,90.85,90.85,0,0,1-12.79-15.25c-5.35-7.84-13-10.39-22.23-8.63-6.13,1.17-11.57,3.92-16.8,7.22a60.06,60.06,0,0,1-8.73,4.73c-2.88,1.21-6,2.26-9.26,0,2.66-3.49,4.76-7.22,3.57-12.14-2.54,2.37-3.43,5.74-6.48,7.48L55.26,148c-3.58,8.55-7.55,15.34-14.51,20.76.16-2.86,1.3-4.87.19-7.37A33.88,33.88,0,0,1,18,172.33C13.55,172.67,9,172.45,4.56,172.48ZM183.21,48.22C179.33,38.11,174,29.08,166,21.89c-3.52-3.15-5.78-2.41-6.26,2.16s-.19,9.26-.26,13.89c0,1.76,1,2.27,2.54,2.31C170,40.47,176.64,44,183.21,48.22ZM124.58,59.73a102.85,102.85,0,0,1,10.07-10.8c2.43-2.24,7.47-2.43,7.3-6.29-.14-3.2-2.65-6.31-4.19-9.42a28,28,0,0,0-2.31-3.82c-.94-1.32-1.81-3-3.75-2.87s-2.48,2.08-3,3.54C125.31,39.2,124.7,48.72,124.58,59.73Z"/><path class="cls-3" d="M146.57,172.59c2.59-7.17.88-13.05-4.47-18.57-4-4.14-5.62-9.73-5.48-15.62,0-1.68.25-3.62,1.93-4.3s2.51,1.2,3.47,2.22c2.29,2.46,4.5,5.41,8.38,3.94,4.18-1.59,4.58-5.52,4.24-9.23-1-10.65-4.27-20-14.47-25.59a32.9,32.9,0,0,1-10.59-9.72c-4-5.4-4-8.3-.23-14a14,14,0,0,0,2.29-8.5c-.16-4.15-.53-8.32-.32-12.46.31-6.11,5.78-12.11,11.69-13.33a6.23,6.23,0,0,1,6.68,2.28c1.59,2.09,3,4.28,4.55,6.43,1.12-.14.58-1,.6-1.51.25-4.51.05-9.27,5.68-11,6.31-1.89,12.55.14,16,5.06,2.43,3.46,3.52,7.48,4.95,11.36,1.53,4.17,3.61,7.52,8.1,9.45,5.89,2.53,5.83,8.31,6.05,13.68-1.85,8.55-6.64,15.67-11.11,23-.43.7-.79,1.43-1.18,2.15l-7.09,4.53c3,1.14,4.8-1.33,7.13-1.45.78,12.36-2.06,24-7.43,35-.93,1.93-1.73,3.92-2.59,5.88-6.22,7.48-12.76,14.58-21.87,18.68A9.17,9.17,0,0,1,146.57,172.59Zm7.8-77,.09,3.13c-1.24,3.58-4.65-1-6.25,1.74,1.85,2.23,4.92,1.5,7.07,2.89,1.39,7.17,3.63,9.26,9.79,9.11,5.68-.13,7.95-2.28,8.72-8.27-.07-4.36,4.06-6.91,5.46-11.66l-5.62,3.82-.45-4.22c4.65-3.73,8.13-8.1,8.2-15-4.67,3.62-8.75,7.55-14.64,7.39a16.94,16.94,0,0,0-9.35,2.09c-4.76,2.7-9.95,1.53-15,.45-2.29-.48-1.68-2.2-1.57-3.92-3.07,1.62-3.88,3.6-2.63,7.45.49-4.11,1.68-3.07,3.21-1.64C145.06,92.35,149.16,95.07,154.37,95.6Zm10.34-21.46c.33-1.95.05-3.52-2.39-3.15-3.75.57-9.06-.41-10.18,3.85-.7,2.65,3.31,5.68,6.82,5.92C163.33,81.06,163.93,77.34,164.71,74.14ZM172.43,63C172,61.26,171,60.15,169,60.27c-1.81.11-2.55,1.25-2.62,2.94a2.65,2.65,0,0,0,2.94,3.08C171.21,66.25,172.12,64.87,172.43,63Zm-28.76,8.37c1.91-.36,3-1.35,2.92-3.35a2.67,2.67,0,0,0-2.85-2.75,2.74,2.74,0,0,0-3.15,3C140.59,70.17,141.88,71.13,143.67,71.39Z"/><path class="cls-3" d="M4.56,172.48c4.49,0,9,.19,13.45-.14A33.88,33.88,0,0,0,40.94,161.4c1.11,2.5,0,4.51-.19,7.37,7-5.42,10.93-12.21,14.51-20.76l.41,6.28c3.05-1.75,3.95-5.11,6.48-7.48,1.19,4.92-.91,8.65-3.57,12.14,3.26,2.24,6.38,1.19,9.26,0a60.06,60.06,0,0,0,8.73-4.73c5.23-3.31,10.66-6.05,16.8-7.22,9.22-1.76,16.88.79,22.23,8.63a90.85,90.85,0,0,0,12.79,15.25,31.35,31.35,0,0,1,6,8.52c2.16,4.08,5.31,6.76,10.1,7.09a93.82,93.82,0,0,1,.56,10.35c-.29,5.8,1.69,9.86,7.45,11.64l0,1.09-2-.13c-.84-.72-1.68-1.41-3.08-.14l3.09.14a3.39,3.39,0,0,0,2,3h0l1,2v0l.07,4.05c-8.25,6.22-15.71,4.93-21.56-3.15A21.43,21.43,0,0,1,127.73,201a53.89,53.89,0,0,0-2.12-19.2c-1.12-3.5-2.44-5.78-6.62-6-3.22-.15-6.39-1.38-9.58-2.14-6.66-3.08-12.55-7.82-20-9.2-2.85-.71-4.73.56-6.18,2.91a15.74,15.74,0,0,1-8.33,6.7c-3.08,1.09-4.7,3.38-6.17,6.07-2,3.73-1.84,6.51,1.87,9.35,6.6,5,6.42,7.81,0,13a2.92,2.92,0,0,1-3.27-2.75c-.38-2.09-1.2-4.09-3.81-4.37l-.35-.15.3.2a12.93,12.93,0,0,1,2,8.85A15.28,15.28,0,0,1,49.67,190a83.61,83.61,0,0,1-.06-8.46c.18-3.07-.95-3.29-3.49-2.27C42.3,180.78,38.37,182,34,181a7.54,7.54,0,0,1,.26-1.59c.55-1.31,2.09-2.68.84-4-1-1.05-2.43.31-3.68.48C22.2,177.11,13,177.57,4.56,172.48Zm55.86,21.27,0,.32.35-.13Z"/><path class="cls-3" d="M179.85,209.78c-5.74,4-12.15,4.33-17.74.85-4.64-2.89-7.08-8.18-6.69-14,.41-6.13-1-12.13-.92-18.22.3-1.56-.16-3.39,2-4.17,5.75-2.1,9.85-6.73,15-9.82-.21,8.48-.54,17,.15,25.42.34,4.14,1.32,7.59,6.2,9.06a6.37,6.37,0,0,1,3.69,9.48,3.25,3.25,0,0,0-1.94-3c-.1-3.24-2.1-3.76-5.86-3.86l5.78,3.92Z"/><path class="cls-4" d="M108.41,175.41c1.05,1.89,2.71,2.62,4.81,3,2.69.53,4,2.57,4.63,5.19s-1.15,4-2.79,5.35c-6.32,5.13-18.34,1.14-20.39-6.7-1-4-2.17-7.93-3.25-11.9C97.24,171.52,103.22,172.14,108.41,175.41Z"/><path class="cls-5" d="M171.43,164.44c-5.11,3.08-9.21,7.72-15,9.82-2.13.78-1.67,2.61-2,4.17-1.94-2.08.57-6-3-7.4,9.11-4.1,15.65-11.2,21.87-18.68C174.16,156.6,171.94,160.39,171.43,164.44Z"/><path class="cls-5" d="M108.41,175.41c-5.2-3.27-11.18-3.89-17-5-1.72-1.62-2-3.7-2-5.92,7.44,1.38,13.33,6.12,20,9.2Z"/><path class="cls-6" d="M152.46,209.54l0-1.09c3.8,2,5.14,4.9,2.93,8.92l-2-3v0l-1-2h0Z"/><path class="cls-7" d="M65.46,204.29a12.93,12.93,0,0,0-2-8.85l.05-.05c2.61.28,3.43,2.28,3.81,4.37a2.92,2.92,0,0,0,3.27,2.75A6.53,6.53,0,0,1,65.46,204.29Z"/><path class="cls-7" d="M183.36,111.45c-2.33.13-4.15,2.59-7.13,1.45l7.09-4.53Q183.34,109.91,183.36,111.45Z"/><path class="cls-7" d="M179.85,209.78l-.39-4.35.08-.07a3.25,3.25,0,0,1,1.94,3Z"/><path class="cls-7" d="M153.48,214.41l2,3c-.36.83-1.11,1-1.88,1.08Z"/><path class="cls-8" d="M183.21,48.22C176.64,44,170,40.47,162,40.26c-1.5,0-2.56-.54-2.54-2.31.07-4.63-.22-9.3.26-13.89s2.75-5.32,6.26-2.16C174,29.08,179.33,38.11,183.21,48.22Z"/><path class="cls-8" d="M124.58,59.73c.12-11,.73-20.53,4.1-29.66.54-1.46.94-3.42,3-3.54s2.8,1.55,3.75,2.87a28,28,0,0,1,2.31,3.82c1.54,3.11,4,6.22,4.19,9.42.17,3.86-4.87,4.05-7.3,6.29A102.85,102.85,0,0,0,124.58,59.73Z"/><path class="cls-8" d="M154.46,98.73q0-1.56-.09-3.13c1-2.73,3.32-3,5.74-2.86,1.43.07,2.82.79,4.19-.53,2.87-2.76,5.9-2.38,8.88-.08l.45,4.22q.08,3.92.15,7.85c-.77,6-3,8.14-8.72,8.27-6.16.15-8.4-1.94-9.79-9.11C155.31,101.77,155.85,100.08,154.46,98.73Z"/><path class="cls-9" d="M173.18,92.14c-3-2.3-6-2.69-8.88.08-1.37,1.32-2.76.6-4.19.53-2.42-.12-4.71.12-5.74,2.86-5.21-.53-9.32-3.25-13-6.68-1.53-1.43-2.72-2.47-3.21,1.64-1.25-3.85-.44-5.83,2.63-7.45-.11,1.72-.72,3.43,1.57,3.92,5.09,1.08,10.28,2.25,15-.45a16.94,16.94,0,0,1,9.35-2.09c5.89.16,10-3.77,14.64-7.39C181.31,84,177.83,88.41,173.18,92.14Z"/><path class="cls-9" d="M164.71,74.14c-.79,3.19-1.39,6.92-5.74,6.62-3.51-.24-7.53-3.27-6.82-5.92,1.13-4.26,6.44-3.28,10.18-3.85C164.77,70.63,165,72.19,164.71,74.14Z"/><path class="cls-9" d="M172.43,63c-.31,1.86-1.22,3.23-3.11,3.27a2.65,2.65,0,0,1-2.94-3.08c.08-1.68.81-2.82,2.62-2.94C171,60.15,172,61.26,172.43,63Z"/><path class="cls-9" d="M143.67,71.39c-1.8-.26-3.08-1.22-3.08-3.14a2.74,2.74,0,0,1,3.15-3A2.67,2.67,0,0,1,146.6,68C146.71,70,145.58,71,143.67,71.39Z"/><path class="cls-10" d="M173.78,104.2q-.08-3.92-.15-7.85l5.62-3.82C177.85,97.29,173.72,99.84,173.78,104.2Z"/><path class="cls-10" d="M154.46,98.73c1.39,1.35.85,3,.82,4.64-2.15-1.39-5.22-.67-7.07-2.89C149.81,97.71,153.22,102.31,154.46,98.73Z"/><path class="cls-7" d="M152.46,209.54l0,2.89a3.39,3.39,0,0,1-2-3h0Z"/><path class="cls-7" d="M150.5,209.41l-3.09-.14c1.4-1.26,2.25-.58,3.08.14Z"/><polygon class="cls-7" points="60.42 193.75 60.74 193.94 60.39 194.07 60.42 193.75"/><path class="cls-7" d="M152.48,212.42l1,2Z"/><path class="cls-7" d="M63.47,195.43l-.3-.2.35.15Z"/><path class="cls-7" d="M179.46,205.44l-5.78-3.92c3.75.1,5.75.62,5.86,3.86Z"/></svg>