<svg id="Capa_1" data-name="Capa 1" xmlns="http://www.w3.org/2000/svg" viewBox="0 0 261 239"><defs><style>.cls-1{fill:#9a999e;}.cls-2{fill:#38303a;}.cls-3{fill:#f0f1f4;}.cls-4{fill:#c6d3d8;}.cls-5{fill:#daaac3;}.cls-6{fill:#443a43;}.cls-7{fill:#e5e8ec;}.cls-8{fill:#d0d9dd;}</style></defs><title>Mesa de trabajo 7g</title><rect class="cls-1" width="261" height="239"/><path class="cls-2" d="M64.92,54.61a15.27,15.27,0,0,1-.35-2.94c.1-1.43-.42-3.34,1.21-4,1.28-.53,2.51.7,3.42,1.61,1.83,1.83,3,2.47,3.87-.83,1-3.64,3.35-2.38,5.34-.92A50.71,50.71,0,0,1,92.29,63.05a26.27,26.27,0,0,0,5.47,6.29c5.85,5.29,11,10.82,10.09,19.92-.68,7.26,3.85,11.89,11.13,12.79,10.64,1.3,19.94-2.38,28.61-8.14,4.29-2.85,8.39-6,12.84-8.6,19.62-11.33,38.83-7.28,52.27,11,6,8.16,10.47,17.4,17.28,25a94.75,94.75,0,0,0,7.24,7.56c5.85,5.23,12.32,9.12,21.07,8-1.81,3.89-5.1,5.52-8,7.51-13.17-.7-23.88-6.21-32.47-17.38v6.09c-4.18-3.24-6.68-7.13-9-11.16-.49-.84-.85-2.08-2-1.86-1.68.32-1.18,1.95-1,2.87.63,2.71,1,5.73,2.53,7.91,2.48,3.56.85,4.9-2.12,6.28-4.57,2.12-8.73.76-12.86-1.29-16.23-8.05-37.17-7.63-50.77,11.94a69.31,69.31,0,0,1-6.6,8.13c-4.65,4.91-8.76,5.14-13.91.73a58.78,58.78,0,0,1-6.49-6.89c-3.4-4-7.13-7-12.73-7.92-6-1-9.78-5.12-11.34-11.24-1.64-6.44-1-12.91-.68-19.36.5-12.1-3.86-17.12-15.95-18-1.33-.09-2.66-.06-4-.08-8.31-.16-9.52-1.36-9.65-9.55a28.78,28.78,0,0,0-.08-3.48c-.75-5.4-4.44-7.82-9.65-6.07a56.18,56.18,0,0,0-7.08,3.49c-.41-3.51,2.39-5.06,4.46-6.9a20.91,20.91,0,0,1,9.26-4.55c3.68-.85,6.3-2.43,6.76-6.43.56,1.42-.4,4.17,1.76,4,2.77-.23,1.11-2.82,1.12-4.38a25.65,25.65,0,0,0-1.54-8.77ZM75.3,48c-1.23,5.72-2.19,10-3.09,14.35-1.14,5.5.27,7.71,6.21,9.6C79.45,64.2,80.18,56.57,75.3,48Z"/><path class="cls-3" d="M44.4,77.57a56.18,56.18,0,0,1,7.08-3.49c5.21-1.75,8.9.67,9.65,6.07a28.78,28.78,0,0,1,.08,3.48c.13,8.18,1.34,9.38,9.65,9.55,1.33,0,2.67,0,4,.08,12.08.86,16.45,5.87,15.95,18-.27,6.46-1,12.93.68,19.36,1.56,6.12,5.34,10.25,11.34,11.24,5.6.93,9.32,3.89,12.73,7.92a58.78,58.78,0,0,0,6.49,6.89c5.15,4.41,9.26,4.18,13.91-.73a69.31,69.31,0,0,0,6.6-8.13c13.6-19.57,34.54-20,50.77-11.94,4.14,2.05,8.29,3.41,12.86,1.29,3-1.38,4.6-2.72,2.12-6.28-1.52-2.18-1.9-5.2-2.53-7.91-.22-.92-.71-2.56,1-2.87,1.17-.22,1.53,1,2,1.86,2.33,4,4.83,7.91,9,11.16V127c8.59,11.17,19.3,16.67,32.47,17.38-11.11,3.85-21.24,1-31.49-5.23.69,9.25,3.95,17,7.05,24.74,2.57,6.41,2,10.22-2.27,14.56-3.4,3.46-7.61,2.68-11.74,2.42l2.55-9.92c-4,2.94-2.86,10.33-9.66,8.16l0,0,1.08-8h0a3.11,3.11,0,0,0,3-3h0c.4-.11,1,0,.9-.67,0-.15-.56-.21-.86-.31-2.19-.54-2.1-2.32-2-4,.11-3-1.09-5.08-4-6.1-8.57-5.64-17.35-10.32-28.05-6A15.46,15.46,0,0,0,168.1,153c-4.71,2.37-9,3.27-12.27-2.28-.4-.69-1.22-1.71-2.45-.87-.43,1.53.86,2.39,1.45,3.48,2.57,4.79,3.81,9.31-.73,13.88a18.05,18.05,0,0,0-4.53,7.59,48.55,48.55,0,0,0-2.68,4.13c-6.26,12.06-13.46,15.33-27.24,12.27.82-4.65,2.52-8.6,8.47-9.54-4.93-1.59-7.36.31-8.71,4.13-.61,1.72-1.14,3.47-1.7,5.2l-2.89-.23c-.59-1.63-1.86-1.65-3.26-1.38l-.12,0c1.85-4,2.05-9.29,8.84-9.87-3.24-1.53-5.25-.82-6.61,1a21.26,21.26,0,0,0-3.95,8.46c-3-4.83.57-12.9,6.25-12.7,6.33.22,8.26-3.6,10.24-8.11.77-1.76.86-3.19-1.64-2.43-7.35,2.23-14.48.2-21.66-.88A54.74,54.74,0,0,1,80.5,147a121.19,121.19,0,0,1-8.19-14.59,15.64,15.64,0,0,0-5.25-6.45c-3.2-2.22-6.55-3.21-10-.54a15.85,15.85,0,0,1-6.3,2.71c-.21-3.12,2.16-4.73,4-6.48s3.86-3.63,4.12-6.51c2.64-2.9,1.81-6.66,3.39-11.32a35.2,35.2,0,0,1-19.55,8.07c-7.87.71-13.9-3.59-14.79-10.68,2.47.11,4.25-.47,5.17-3.26s.73-5.06-1.76-6.86C39.67,90.37,41,82.95,44.4,77.57Zm8.5,9.68c-.18-1,0-2.74-1.91-2.54s-1.57,1.91-1.54,3.16.15,3.07,1.9,2.86C52.86,90.53,52.85,88.81,52.9,87.25Zm164.26,83.47.7-1c-.26-.13-.63-.44-.76-.36a4.39,4.39,0,0,0-.84.9Zm-67.35-25,0-.32-.34.13Z"/><path class="cls-3" d="M96.61,167.7c-4,4.64-9.45,7.08-14.91,9.23-8.74,3.44-17.52,6.92-26.93,8.23-2.66,0-5.32-.08-8-.09-7.62,0-7.62,0-6.32-7.42,0-.18-.35-.42-.59-.7-1.9,1.36-2.08,3.3-2.15,5.31,0,1.45-.41,2.79-2.24,2.55s-1.93-1.81-1.7-3.08c.48-2.58,1.27-5.11,1.93-7.66l1-1,.85-.13-.21-.42-.63.58-1,1c-4,2-3.4,6.27-4.79,10.93l-.44-7.08c1-5.3,4.63-9,9.48-8.57,10.45.86,18.24-4.85,26.79-8.92.75-.36,1.48-.74,2.22-1.11C77.47,164.44,86.44,168,96.61,167.7Z"/><path class="cls-2" d="M96.61,167.7c-10.17.35-19.14-3.25-27.64-8.39L80.5,147a54.73,54.73,0,0,0,22.39,17.81C100.84,165.85,99,167.32,96.61,167.7Z"/><path class="cls-4" d="M149.57,174.76a18.05,18.05,0,0,1,4.53-7.59c4.53-4.57,3.29-9.08.73-13.88-.58-1.09-1.87-1.95-1.45-3.48,1.24-.85,2.05.18,2.45.87,3.25,5.55,7.55,4.65,12.27,2.28A15.46,15.46,0,0,1,174.7,151c-1.08,6.45-5.65,11.55-6.9,18-.34,1.77-2.63,3.38-4.5,3.63C158.71,173.27,154.35,175.51,149.57,174.76Z"/><path class="cls-5" d="M58.92,115.12c-.26,2.88-2.13,4.66-4.12,6.51s-4.25,3.36-4,6.48c-.8,2.25-.57,4.59-.69,6.91-.08,1.63-.81,3.35-2.46,3.86s-2.57-1.13-3.42-2.33c-3.7-5.17-.58-15.83,5.84-19.12C52.73,116,55.54,114.24,58.92,115.12Z"/><path class="cls-6" d="M31.39,91.07c2.49,1.81,2.71,4,1.76,6.86s-2.7,3.37-5.17,3.26c-2.88-1.93-4.18-4.69-3-7.91C26.08,90.4,29,91.08,31.39,91.07Z"/><path class="cls-4" d="M35.73,174.06c-.66,2.55-1.44,5.07-1.93,7.66-.24,1.27-.09,2.85,1.7,3.08s2.2-1.1,2.24-2.55c.06-2,.25-4,2.15-5.31.24.27.62.52.59.7-1.3,7.42-1.31,7.41,6.32,7.42,2.66,0,5.32.06,8,.09-7.67,1.93-15.54,1.3-23.15.45-4-.45-2.43-4.8-1.14-7.69.12,1.93.24,3.86.44,7.08,1.4-4.66.82-8.89,4.79-10.93Z"/><path class="cls-5" d="M64.92,54.61l1.28-4.08a25.65,25.65,0,0,1,1.54,8.77c0,1.55,1.65,4.15-1.12,4.38-2.16.18-1.2-2.57-1.76-4C64.89,58,64.91,56.29,64.92,54.61Z"/><path class="cls-7" d="M202.76,157.05c2.89,1,4.09,3.09,4,6.1-.06,1.65-.16,3.43,2,4a9.64,9.64,0,0,0,0,1h0a3,3,0,0,0-3,3h0c-4.11.55-1.63,5.53-4.61,6.84-1-3-1.12-6.17,1.07-8.32C206.5,165.37,205.35,161.35,202.76,157.05Z"/><path class="cls-8" d="M204.7,179.12c6.8,2.18,5.69-5.22,9.66-8.16l-2.55,9.92C209.23,181.14,206.77,180.92,204.7,179.12Z"/><path class="cls-8" d="M117.7,191c.56-1.74,1.09-3.48,1.7-5.2,1.35-3.82,3.78-5.72,8.71-4.13-5.95.95-7.65,4.89-8.47,9.54Z"/><path class="cls-8" d="M109.71,188.91a21.26,21.26,0,0,1,3.95-8.46c1.36-1.84,3.37-2.55,6.61-1-6.79.58-7,5.86-8.84,9.87Z"/><path class="cls-8" d="M201.14,177.92c3-1.31.5-6.29,4.61-6.84l-1.08,8C203.39,179,202,179.13,201.14,177.92Z"/><path class="cls-8" d="M111.55,189.34c1.4-.27,2.67-.25,3.26,1.38A3.22,3.22,0,0,1,111.55,189.34Z"/><path class="cls-5" d="M75.3,48c4.88,8.59,4.15,16.22,3.13,23.95-5.94-1.89-7.36-4.09-6.21-9.6C73.12,58,74.07,53.71,75.3,48Z"/><path class="cls-6" d="M52.9,87.25c0,1.57,0,3.29-1.55,3.47-1.75.21-1.87-1.58-1.9-2.86s-.22-3,1.54-3.16S52.71,86.22,52.9,87.25Z"/><path class="cls-8" d="M205.74,171.08a3,3,0,0,1,3-3A3.11,3.11,0,0,1,205.74,171.08Z"/><path class="cls-8" d="M217.16,170.71l-.9-.49a4.39,4.39,0,0,1,.84-.9c.13-.08.5.23.76.36Z"/><polygon class="cls-4" points="149.81 145.74 149.49 145.54 149.84 145.42 149.81 145.74"/><path class="cls-8" d="M208.73,168.08a9.64,9.64,0,0,1,0-1c.3.1.83.16.86.31C209.76,168.11,209.13,168,208.73,168.08Z"/><path class="cls-4" d="M36.73,173.07l.63-.58.21.42-.85.13Z"/><path class="cls-4" d="M35.72,174.06l1-1,0,0-1,1Z"/></svg>