<svg id="Capa_1" data-name="Capa 1" xmlns="http://www.w3.org/2000/svg" xmlns:xlink="http://www.w3.org/1999/xlink" viewBox="0 0 612 792"><defs><style>.cls-1{fill:none;}.cls-2{fill:#f1f0ee;}.cls-3{fill:#6b6e6e;}.cls-4{fill:#cacdce;}.cls-5{fill:#959898;}.cls-6{fill:url(#Nueva_muestra_de_motivo_6);}</style><pattern id="Nueva_muestra_de_motivo_6" data-name="Nueva muestra de motivo 6" width="310.31" height="326.21" patternUnits="userSpaceOnUse" viewBox="0 0 310.31 326.21"><rect class="cls-1" width="310.31" height="326.21"/><path class="cls-2" d="M310.31,293.83v32.37H192.91c-4.27-3.72-6.51-8.69-6.21-15.35.1-2.28-1.79-3.55-3.59-4.36a3.15,3.15,0,0,0-4.26,1.61c-1.19,3.13-3.5,3.81-6.39,4.16-1.86.23-2.69,1.89-3.09,3.55-.46,1.93.75,3.16,2.25,4s3.06,1.34,4.41,2.28a20,20,0,0,1,4.35,4.07H111.13a2.62,2.62,0,0,1-.44-.47c-6-8.38-13.65-16.07-11-28a8.11,8.11,0,0,0-5.08-9.35,7.56,7.56,0,0,0-9.87,4.51c-1.43,4.7-4.19,5.65-8.49,5.31-3.18-.25-6.23.94-7.13,4.26-1,3.78-.07,7.33,3.53,9.58,1.55,1,3.28,1.62,4.87,2.53a32.37,32.37,0,0,1,12.27,11.68H0V293.83c2.57-.23,3.76-2.4,4.47-4.73,3-9.8,8.45-14.32,18.66-15.23,3-.27,5.59-1.17,5.65-5.78.09-1.87-1.25-3.48-3.8-4.27-2.31-.72-4.18-1.69-4.32-4.69-.11-2.55-1-5-4.23-5.19s-4.85,1.57-5.73,4.47c-2,6.44-5.56,10.8-10.7,13.25V219c3.07-.32,4.16-2.93,4.66-5.77.31-1.78.07-3.64,1.54-5.1,4.76-4.71,9.45-9.36,17-9.08,3,.11,5.57-1.16,5.67-5.6a4.39,4.39,0,0,0-3.28-4.36c-3.17-1-5-2.61-5.16-6.24C20.29,180.7,18.67,179,16,179c-2.45,0-4.19.92-5.11,3.18A34.55,34.55,0,0,1,9.57,186c-2.5,4.51-5.43,8.52-9.57,10.87V77.91c.38,0,.75-.09,1.13-.1a26.48,26.48,0,0,1,19.51,7.72c2.76,5.23,5.68,7.39,9.68,6.24s4.1-4.77,3.16-7.94c-.84-2.84,1.1-3.72,2.42-5.27,1.67-2,3.36-4.08,1.84-6.87a6.27,6.27,0,0,0-7.09-3.2c-11.29,2.17-20.51-.56-27.19-10.42A4.61,4.61,0,0,0,0,56V0H86.15a31.88,31.88,0,0,1,3.33,13.38q0,1.5,0,3c0,5.8,2.68,10.5,6.74,10.82,5.07.4,8-2.84,9.52-7.23.89-2.54,2.06-2.93,4.67-2.59,5.3.7,9.12-1.94,10-6.15s-1.47-8-6.39-10c-.91-.37-1.94-.47-2.85-.85-.38-.16-.79-.29-1.21-.43H177a21.79,21.79,0,0,1,3.24,8.43c-.71,4.56.11,7.28,3.15,8.42s4.79-1.07,5.68-3.5c.8-2.17,2.42-1.82,4-2.18,2-.45,4-1,4.36-3.44a4.89,4.89,0,0,0-2.95-5.31A29.11,29.11,0,0,1,190.32,0h120V56a10.94,10.94,0,0,0-3.54.28,4,4,0,0,0-3.15,4.91c1.17,4.13-.69,6.59-3.38,9.16-1.74,1.66-1.32,4-.45,6,1,2.33,3.19,2.67,5.4,2.43,1.72-.19,3.42-.71,5.13-.93V196.84a16.9,16.9,0,0,1-7.79,2.15c-3,.12-5.79.34-6.41,4-.67,3.9,1.56,6.06,4.95,6.88,2.21.54,2.94,1.48,3,3.67.16,3.2,2,5.37,5.29,5.51a6.44,6.44,0,0,0,.92,0v52.66a25.38,25.38,0,0,1-8.85,2.25c-2.58.21-5,.92-5.35,4.12a4.91,4.91,0,0,0,4.14,5.82c2.69.61,3.84,1.91,3.93,4.77s2.08,4.87,5.08,5.17A5.59,5.59,0,0,0,310.31,293.83Zm-17.25-67.2c-2.11,1.47-3.8,1.09-5.82-.34s-4.85-2.08-7-.34-1.3,4.31-.79,6.55c.25,1.09,1.17,2,1.6,3.07,2.83,7,4,14-1.26,20.58-1.29,1.62-2.94,3.28-2.69,5.72-.1,4,3.23,6.31,7.18,4.49,2.75-1.27,4.89-1.83,7.7,0,2.07,1.34,4.86,1.58,6.76-.83a5.18,5.18,0,0,0-.32-7.28c-3-3-3.47-6.53-3.42-10.5.06-4.84,1.15-9.08,4.45-12.82,2-2.21,2.69-5.24.72-7.81S295.5,224.94,293.06,226.63Zm-3.3-67.86c-3,1.36-2.79,4.23-2.6,7a18.67,18.67,0,0,1-9.92,17.16c-2.41,1.38-4.05,3-3.34,6s3.06,3.34,5.51,3c2.07-.25,3,.76,3.82,2.39a4,4,0,0,0,5.12,2,4.24,4.24,0,0,0,3.12-5.06c-1.51-9.2,2.59-15.26,10.39-19.45,2.1-1.13,3.28-2.93,2.7-5.36s-2.54-3.34-5-3.23c-1.48.07-2.9.37-3.88-1.37C294.44,159.58,292.75,157.4,289.76,158.77ZM234.27,40c.92,2.53,3.1,3.48,5.66,2.68,1.76-.55,2.77,0,3.84,1.31,1.54,1.82,3.33,3.59,6,2.14s2.6-4,2.21-6.57c-1.15-7.68,1-14.07,7.54-18.64,1.7-1.2,3.17-2.43,3.34-5.13-.29-2.83-2.16-4.31-5.34-3.93-1.85.22-3.48.71-4.7-1.42s-3.29-3-5.56-1.88c-2.43,1.19-3,3.53-2.36,6,2.28,8.56-1.18,14.74-7.92,19.61C234.9,35.57,233.34,37.38,234.27,40Zm2.56,52c1.55,1,3.28,1.62,4.87,2.53C252,100.31,257.62,109,258.1,120.94q0,1.5,0,3c0,5.8,2.68,10.5,6.74,10.82,5.07.4,8-2.84,9.52-7.23.89-2.54,2.06-2.93,4.67-2.59,5.3.7,9.12-1.94,10-6.15s-1.47-8-6.39-10c-.91-.37-1.94-.47-2.85-.85-1.68-.69-3.94-1-4.86-2.33-6-8.38-13.65-16.07-11-28a8.11,8.11,0,0,0-5.08-9.35,7.56,7.56,0,0,0-9.87,4.51c-1.43,4.7-4.19,5.65-8.49,5.31-3.18-.25-6.23.94-7.13,4.26C232.28,86.12,233.23,89.68,236.84,91.93Zm22.84,63.73a3.36,3.36,0,0,0-3.06-2.25c-6.69.09-10.81-3.36-13.23-9.31a3.34,3.34,0,0,0-3.42-2.42,3,3,0,0,0-2.77,3,3.75,3.75,0,0,1-2.06,3.16c-1.39.82-2.35,2-1.93,3.68.49,1.95,2.08,2.31,3.85,2.52,5.87.69,10.35,3.29,12.44,9.18a3.57,3.57,0,0,0,3.35,2.57C254.62,165.74,260.37,157.24,259.68,155.66Zm-41.53,28a4.78,4.78,0,0,0-4.13,4.94c0,2.73,1.81,4.19,3.95,5.27,1.17.59,2.59.69,3.77,1.27,6.74,3.36,11.73,8.16,12.26,16.16.21,3.28.83,6,4.54,6.7s5.6-1.79,6.37-4.89c.54-2.18,1.39-3,3.63-3.08,3.21-.12,5.36-2,5.52-5.26.19-3.83-2.67-5-5.77-5.64-1.6-.31-3.39.11-4.71-1.19-4.71-4.64-10-8.85-9.59-16.6.16-3.15-1.52-5.74-4.36-6.22-3.33-.22-5.05,1.23-5.68,3.4C223,181.65,221.27,183.07,218.15,183.7ZM191,24c-.93,1.11-1.29,2.38-.14,3.57a3.58,3.58,0,0,0,4.18.67c5.94-2.85,11.41-2.43,16.81,1.44,2.41,1.72,4.63.08,4.59-2.26s-.47-4.52.55-6.6c-.4-3.43-2.83-4.09-5-3-5.83,2.89-11.08,2.39-16.22-1.4-1.09-.8-2.44-1.24-3.69-.23a3,3,0,0,0-.8,3.63C191.78,21.27,192.11,22.61,191,24Zm-4.17,41.87c1.42.84,3.06,1.34,4.41,2.28a20.67,20.67,0,0,1,8.62,13.93c-.71,4.56.11,7.28,3.15,8.42s4.79-1.07,5.68-3.5c.8-2.17,2.42-1.82,4-2.18,2-.45,4-1,4.36-3.44A4.89,4.89,0,0,0,214,76c-8.08-3.9-12.58-9.91-12.16-19.2.1-2.28-1.79-3.55-3.59-4.36A3.15,3.15,0,0,0,194,54.09c-1.19,3.13-3.5,3.81-6.39,4.16-1.86.23-2.69,1.89-3.09,3.55C184.1,63.74,185.31,65,186.81,65.85Zm-33.65,39.47-2.56-1.56c-1.5-2.15-3.4-3.37-5.86-1.68a4.61,4.61,0,0,0-1.76,6.13c1.64,3.53.74,6.69-.77,10-1.75,3.84-3.53,7.44-7.61,9.44a4.36,4.36,0,0,0-2.27,5.51c.59,1.93,2.15,3.3,4.14,2.82,3-.73,4.77.55,6.8,2.51,2.7,2.59,5.83,1.44,6.59-2.22a16,16,0,0,0-.16-4.43c-.59-7.1,1.47-13.08,7.31-17.46,2.29-1.72,5-3.36,3.48-6.8S156,104.82,153.16,105.32ZM149,67.13c0-1.81-1-3.38-2.8-3.6a4,4,0,0,0-4,2.46C140,70.73,135.5,71.64,131.05,72c-7.11.63-7.12.43-4.32,6.58a10.87,10.87,0,0,1,.41,1.92c1,4.1,3.21,4.92,6.1,1.77,4.09-4.45,8.7-7,14.88-6.28,2,.23,3.64-.43,3.87-2.82C152.25,70.59,149.06,69.68,149,67.13ZM114.8,31.23c1.53,1.15,2.42,2.23,1.43,4-.39,2.52.11,4.59,2.46,5.59s4.53.07,6.17-1.92c5.49-6.63,12.27-9.26,20.83-7.1,2.53.64,4.49-.73,5.63-3.1s-.07-3.91-1.71-5.18c-1.38-1.07-2.65-1.79-1.85-4,1.09-3-.81-5-3.19-5.93-2.54-1-4.53.64-5.66,2.86-1.9,3.73-5.08,5.45-8.9,6.58a18.13,18.13,0,0,1-10.77.35c-2.56-.77-5-.18-6.45,2.42S113.08,29.93,114.8,31.23ZM84.74,137a3,3,0,0,0-4.1.11c-1.37,1.19-1.42,2.47-.56,4,.58,1,1.12,2.07.22,3.22s-1.72,2.58-.31,4a3.62,3.62,0,0,0,4.2.58c5.81-3,11.09-2,16.36,1.41,2.53,1.66,5,.5,4.95-2.35a19,19,0,0,1,.53-6.56c-.29-3.22-2.61-4-4.63-3C95.46,141.27,90,140.93,84.74,137ZM76.59,84.81c-3.67-2-7.13-4.05-8.91-8.25A5,5,0,0,0,62,73.4c-2.48.54-3.11,2.72-3,5.09.08,1.52,0,2.85-1.5,3.92-2,1.44-4.35,3-3.06,6.06s4.23,2.76,6.89,2.63c7.43-.36,13.14,2.5,17.25,8.76,1.25,1.91,2.71,3.82,5.61,4.27a4.42,4.42,0,0,0,3.92-4.64c0-1.78-.28-3.52,1.65-4.86s4-3.37,2.35-6.24c-1.49-2.56-4.23-2.95-6.6-2.12C82.1,87.48,79.4,86.33,76.59,84.81ZM38.53,39.65c7.7-4,15.13-9,24.13-5.35,3.91-.78,7.41-1.6,8.38-5.75,1-4.34-.7-7.73-4.72-9.36-3.45-1.4-4.64-3.34-4.33-7.07s-.57-7.65-4.89-8.84c-4.47-1.23-7.72,1-10,4.82-.77,1.28-1.36,2.67-2.07,4-5.17,9.48-18.92,16.27-29.61,14.62-5.24-.81-9.79,1.48-11,5.54-1.14,3.81.83,7.72,5.7,9.85,3,1.32,4.34,2.46,3.51,6.16a7.7,7.7,0,0,0,5.66,9.28c4.66,1,7.64-1.3,9.69-5.21a7.89,7.89,0,0,0,.69-1.87C30.86,45.39,34,42,38.53,39.65Zm-5.71,156.6a4.06,4.06,0,0,0,4.91,3.21c2.17-.32,3.35.13,4.37,2.08a4.12,4.12,0,0,0,5.51,2.11c2.49-1,3.13-3.22,2.84-5.77a18,18,0,0,1,9.65-18.3c2-1.1,3.53-2.48,3.62-5.05-.56-2.77-2.24-4.42-5.19-4.1-1.6.18-2.88.44-3.8-1.27-1.28-2.4-3.17-4.15-6-2.92-2.68,1.16-2.92,3.77-2.85,6.38.21,8-2.91,14.18-10.2,17.91C33.24,191.79,32.24,193.67,32.82,196.26ZM29.1,134.17c1.29-2.14.34-3.82-.86-5.47-5.08-7-6.58-14.26-1.91-22.11,1.48-2.48.16-4.47-1.49-6.23s-3.7-1.05-5.36.16-3,1.74-5,.91c-2.38-1-4.71-.45-5.94,2.06s-.38,4.54,1.62,6.21c3.07,2.57,3.92,6,3.91,9.79s.25,7.55-2.41,10.9a4.63,4.63,0,0,0,.17,5.62c1,1.34,2.7,2.47,4.34,1.45,3-1.83,5.82-3.14,8.74-1.37C27,136.22,28.21,135.64,29.1,134.17Zm6.28,117.09c1.34,2.46,4.48,3.8,6.23,1.52,2.89-3.75,2.38-9.44,6.57-12.07-.72-4-2.92-5.43-5.87-4.9-9.17,1.64-15.2-2.4-19.54-10-1.15-2-3-3.22-5.42-2.56s-3.37,2.72-3,5.06a3.94,3.94,0,0,1-2.17,4.48c-1.79,1.11-3,2.77-2.24,5a4.62,4.62,0,0,0,5.13,3.13C24.08,240.07,30.94,243.1,35.39,251.26Zm37.48,30.45c-2.13-.82-1.83-2.92-1.48-4.77.28-1.45.66-2.88.77-3.33,0-3,.56-5.41-1.86-6.21a8.48,8.48,0,0,0-8.82,1.87c-7.9,7.27-16.83,8.7-26.68,4.64a6.21,6.21,0,0,0-7.92,2.22c-1.84,2.51-.74,5.22,1.28,7.2,1.47,1.43,2.29,2.63,1.5,4.73-1.05,2.81-1.36,5.92,1.76,7.46s6.41.92,8.93-2.07c1.81-2.15,3.66-4.54,6.62-5.05,6.5-1.13,13-2.8,19.53.29a10,10,0,0,0,3.92.45A4.25,4.25,0,0,0,75,286C75.54,284,75.13,282.59,72.87,281.71Zm27.43-92.56a4.09,4.09,0,0,0,1.49-5.32,4.17,4.17,0,0,0-5.34-2.51c-2.19.69-3.28,0-4.52-1.69-1.37-1.84-3.3-2.79-5.67-1.53s-2.67,3.45-2.14,5.6c2.18,8.94-1.23,15.39-8.55,20.28a4.5,4.5,0,0,0-2.13,5.15,3.84,3.84,0,0,0,4.53,3c2.54-.35,4.5.22,6.08,2.33.81,1.08,2.05,1.67,4.34,1.56s3.07-2.36,2.79-4.85C90.13,202.09,92.06,194.39,100.29,189.15Zm23.51,69.18c1.1,2.23,2.91,3.92,5.54,3.26s3.67-2.77,3.5-5.38a4.28,4.28,0,0,1,1.87-4.29c2.17-1.48,3.2-3.64,1.84-6s-3.77-3-6.49-2.11c-2.88,1-5.5.28-8.15-1.06-4.2-2.14-8.23-4.24-10.14-9.05a4.23,4.23,0,0,0-5.41-2.48,3.94,3.94,0,0,0-3.09,4.53c.42,2.78-1,4.13-2.91,5.75-3,2.58-2.31,5.22,1.3,6.93a5.46,5.46,0,0,0,5-.09C113.55,249.46,120.24,251.12,123.8,258.33ZM148.94,301c-1.35-1.92-2-3.53-.58-5.8a4.07,4.07,0,0,0-.57-5.49c-1.9-1.7-4.13-1.35-6-.15-2.7,1.7-5.29,3.43-8.61,3.66-4.72.33-9.26.28-13.47-2.48a5,5,0,0,0-6.49.41c-1.86,1.83-1.21,4,0,5.94.84,1.33,1.35,2.55.53,4.16-1.22,2.41-1.51,4.89,1.12,6.63s4.83.36,6.69-1.46c2.91-2.85,6.66-2.65,10.27-3.22,3.52.72,7.51.26,10.18,3.32,2.26,2.61,4.36.86,6.07-.22A3.59,3.59,0,0,0,148.94,301ZM165.2,173.45a4.39,4.39,0,0,0-3.28-4.36c-3.17-1-5-2.61-5.16-6.24-.12-2.18-1.73-3.85-4.43-3.86-2.45,0-4.19.92-5.11,3.18a34.55,34.55,0,0,1-1.29,3.76c-3.84,6.93-8.65,12.69-17.38,13-3,.12-5.79.34-6.41,4-.67,3.9,1.56,6.06,4.95,6.88,2.21.54,2.94,1.48,3,3.67.16,3.2,2,5.37,5.29,5.51,3.81.16,5.06-2.69,5.61-5.8.31-1.78.07-3.64,1.54-5.1,4.76-4.71,9.45-9.36,17-9.08C162.57,179.17,165.1,177.89,165.2,173.45Zm27.29,104.44a3.18,3.18,0,0,0-3.1-3.23c-6.74-.4-10.4-4.29-12.34-10.37a3.25,3.25,0,0,0-3.38-2.45,2.77,2.77,0,0,0-2.81,2.37c-.3,1.56-.81,2.78-2.51,3.34a2.73,2.73,0,0,0-2.1,3,3.4,3.4,0,0,0,3,3c6.54,1,11,4.4,12.83,10.9a2.93,2.93,0,0,0,3,2.16,2.64,2.64,0,0,0,2.75-2.43c.08-2.22,1.19-3.18,3.1-3.8C192,280,192.36,279,192.49,277.89Zm-1.74-66.25a3.34,3.34,0,0,1-.58-2.3c0-1.91-.61-3.37-2.56-3.71s-3.16.81-4,2.41c-2.55,5.05-7.24,5.91-12.17,6.12-2.12.09-4.52-.82-5.8,1.61s.76,3.57,2.15,5a3,3,0,0,1,.53,1.84c.09,1.78.48,3.53,2.4,3.92s3.28-1,4.45-2.59a14.81,14.81,0,0,1,12-5.91c1.94-.06,4.22.82,5.46-1.37S192.33,213,190.76,211.65ZM204.06,143c1.49-9.18,1.19-10.89,3.1-13.07a37.81,37.81,0,0,1,5.58-5.29,4.5,4.5,0,0,0,2.11-5.6c-.89-2.65-3.16-3.51-5.63-2.75-2,.63-3-.12-4.12-1.55s-2.56-3.48-4.94-2c-2.08,1.28-3.61,3.15-2.94,5.81,2.2,8.69-.92,15.15-8,20.12-1.82,1.27-3.29,3.16-2.73,5.48.61,2.47,2.8,2.83,5.15,3a9.48,9.48,0,0,1,6.39,2.62c1,1.06,1.33,2.07,2.35,2.2a3,3,0,0,0,2.31-1.13C203,149.21,203.5,146.47,204.06,143Zm29.88,169.34c-.42-1.78-1.79-2.28-3.4-2.31-6.33-.11-10-3.84-12.3-9.24-.65-1.51-1.34-2.65-3.12-2.73-1.51,0-2.72.64-2.91,2.17a4.37,4.37,0,0,1-2.86,3.71c-1.27.57-2.39,1.46-2,3.05a3.76,3.76,0,0,0,3.56,3c6.27.49,10.56,3.44,12.58,9.55a3.56,3.56,0,0,0,3.45,2.47,2.77,2.77,0,0,0,2.8-2.39,5.62,5.62,0,0,1,2.84-3.86A2.84,2.84,0,0,0,233.94,312.37Zm8.55-58.3c3-.27,5.59-1.17,5.65-5.78.09-1.87-1.25-3.48-3.8-4.27-2.31-.72-4.18-1.69-4.32-4.69-.11-2.55-1-5-4.23-5.19s-4.85,1.57-5.73,4.47c-2.93,9.67-9.58,14.68-19.57,15.52-2.58.21-5,.92-5.35,4.12a4.91,4.91,0,0,0,4.14,5.82c2.69.61,3.84,1.91,3.93,4.77s2.08,4.87,5.08,5.17c3.33.34,4.74-2.09,5.54-4.72C226.81,259.5,232.28,255,242.49,254.07Zm52.94,42.57c-1.71-3.42-5.19-4.19-8.63-3.28s-6.56.23-9.77-.7c-6.11-1.77-11.15-4.88-14.56-10.53-1.59-2.64-4.17-4.58-7.58-3.19s-4.22,4.05-3.12,7.38c.63,1.91.06,3.14-1.62,4.16-2.74,1.67-4.85,3.77-3.08,7.32s4.86,3.79,8.14,3.18c10.73-2,18.6,2.23,24.45,11a8.69,8.69,0,0,0,5.94,3.89c3.43-.12,5.8-3.39,5-7.25-.4-2-.62-3.35,1.41-4.63C294.65,302.34,297.13,300,295.43,296.64Z"/><path class="cls-3" d="M62.66,34.3c3.91-.78,7.41-1.6,8.38-5.75,1-4.34-.7-7.73-4.72-9.36-3.45-1.4-4.64-3.34-4.33-7.07s-.57-7.65-4.89-8.84c-4.47-1.23-7.72,1-10,4.82-.77,1.28-1.36,2.67-2.07,4-5.17,9.48-18.92,16.27-29.61,14.62-5.24-.81-9.79,1.48-11,5.54-1.14,3.81.83,7.72,5.7,9.85,3,1.32,4.34,2.46,3.51,6.16a7.7,7.7,0,0,0,5.66,9.28c4.66,1,7.64-1.3,9.69-5.21a7.89,7.89,0,0,0,.69-1.87c1.17-5.06,4.3-8.45,8.85-10.8C46.23,35.67,53.67,30.69,62.66,34.3Z"/><path class="cls-4" d="M236.84,91.93c1.55,1,3.28,1.62,4.87,2.53C252,100.31,257.62,109,258.1,120.94q0,1.5,0,3c0,5.8,2.68,10.5,6.74,10.82,5.07.4,8-2.84,9.52-7.23.89-2.54,2.06-2.93,4.67-2.59,5.3.7,9.12-1.94,10-6.15s-1.47-8-6.39-10c-.91-.37-1.94-.47-2.85-.85-1.68-.69-3.94-1-4.86-2.33-6-8.38-13.65-16.07-11-28a8.11,8.11,0,0,0-5.08-9.35,7.56,7.56,0,0,0-9.87,4.51c-1.43,4.7-4.19,5.65-8.49,5.31-3.18-.25-6.23.94-7.13,4.26C232.28,86.12,233.23,89.68,236.84,91.93Z"/><path class="cls-5" d="M286.8,293.36c-3.44.91-6.56.23-9.77-.7-6.11-1.77-11.15-4.88-14.56-10.53-1.59-2.64-4.17-4.58-7.58-3.19s-4.22,4.05-3.12,7.38c.63,1.91.06,3.14-1.62,4.16-2.74,1.67-4.85,3.77-3.08,7.32s4.86,3.79,8.14,3.18c10.73-2,18.6,2.23,24.45,11a8.69,8.69,0,0,0,5.94,3.89c3.43-.12,5.8-3.39,5-7.25-.4-2-.62-3.35,1.41-4.63,2.6-1.64,5.08-4,3.38-7.35S290.24,292.45,286.8,293.36Z"/><path class="cls-4" d="M75,286a4.25,4.25,0,0,1-4.55,3.14,10,10,0,0,1-3.92-.45c-6.5-3.09-13-1.42-19.53-.29-3,.52-4.81,2.91-6.62,5.05-2.52,3-5.7,3.67-8.93,2.07s-2.81-4.65-1.76-7.46c.79-2.11,0-3.3-1.5-4.73-2-2-3.12-4.68-1.28-7.2a6.21,6.21,0,0,1,7.92-2.22c9.85,4.06,18.78,2.63,26.68-4.64a8.48,8.48,0,0,1,8.82-1.87c2.43.8,1.86,3.21,1.86,6.21-.11.45-.49,1.88-.77,3.33-.35,1.84-.65,3.94,1.48,4.77S75.54,284,75,286Zm-6.16-11-.34,0,.14.4Z"/><path class="cls-4" d="M161.92,169.1c-3.17-1-5-2.61-5.16-6.24-.12-2.18-1.73-3.85-4.43-3.86-2.45,0-4.19.92-5.11,3.18a34.55,34.55,0,0,1-1.29,3.76c-3.84,6.93-8.65,12.69-17.38,13-3,.12-5.79.34-6.41,4-.67,3.9,1.56,6.06,4.95,6.88,2.21.54,2.94,1.48,3,3.67.16,3.2,2,5.37,5.29,5.51,3.81.16,5.06-2.69,5.61-5.8.31-1.78.07-3.64,1.54-5.1,4.76-4.71,9.45-9.36,17-9.08,3,.11,5.57-1.16,5.67-5.6A4.39,4.39,0,0,0,161.92,169.1Z"/><path class="cls-4" d="M296.11,203c-.67,3.9,1.56,6.06,4.95,6.88,2.21.54,2.94,1.48,3,3.67.16,3.2,2,5.37,5.29,5.51a6.44,6.44,0,0,0,.92,0V196.84a16.9,16.9,0,0,1-7.79,2.15C299.49,199.11,296.73,199.34,296.11,203Z"/><path class="cls-4" d="M214,188.63c0,2.73,1.81,4.19,3.95,5.27,1.17.59,2.59.69,3.77,1.27,6.74,3.36,11.73,8.16,12.26,16.16.21,3.28.83,6,4.54,6.7s5.6-1.79,6.37-4.89c.54-2.18,1.39-3,3.63-3.08,3.21-.12,5.36-2,5.52-5.26.19-3.83-2.67-5-5.77-5.64-1.6-.31-3.39.11-4.71-1.19-4.71-4.64-10-8.85-9.59-16.6.16-3.15-1.52-5.74-4.36-6.22-3.33-.22-5.05,1.23-5.68,3.4-.89,3.1-2.66,4.51-5.79,5.14A4.78,4.78,0,0,0,214,188.63Z"/><path class="cls-4" d="M287.23,226.29c-2.11-1.48-4.85-2.08-7-.34s-1.3,4.31-.79,6.55c.25,1.09,1.17,2,1.6,3.07,2.83,7,4,14-1.26,20.58-1.29,1.62-2.94,3.28-2.69,5.72-.1,4,3.23,6.31,7.18,4.49,2.75-1.27,4.89-1.83,7.7,0,2.07,1.34,4.86,1.58,6.76-.83a5.18,5.18,0,0,0-.32-7.28c-3-3-3.47-6.53-3.42-10.5.06-4.84,1.15-9.08,4.45-12.82,2-2.21,2.69-5.24.72-7.81s-4.68-2.17-7.12-.47C290.95,228.1,289.26,227.72,287.23,226.29Z"/><path class="cls-4" d="M248.13,248.3c.09-1.87-1.25-3.48-3.8-4.27-2.31-.72-4.18-1.69-4.32-4.69-.11-2.55-1-5-4.23-5.19s-4.85,1.57-5.73,4.47c-2.93,9.67-9.58,14.68-19.57,15.52-2.58.21-5,.92-5.35,4.12a4.91,4.91,0,0,0,4.14,5.82c2.69.61,3.84,1.91,3.93,4.77s2.08,4.87,5.08,5.17c3.33.34,4.74-2.09,5.54-4.72,3-9.8,8.45-14.32,18.66-15.23C245.53,253.8,248.08,252.91,248.13,248.3Z"/><path class="cls-4" d="M296.11,278.07a4.91,4.91,0,0,0,4.14,5.82c2.69.61,3.84,1.91,3.93,4.77s2.08,4.87,5.08,5.17a5.59,5.59,0,0,0,1.05,0V271.69a25.38,25.38,0,0,1-8.85,2.25C298.88,274.16,296.44,274.87,296.11,278.07Z"/><path class="cls-4" d="M212.74,124.67a4.5,4.5,0,0,0,2.11-5.6c-.89-2.65-3.16-3.51-5.63-2.75-2,.63-3-.12-4.12-1.55s-2.56-3.48-4.94-2c-2.08,1.28-3.61,3.15-2.94,5.81,2.2,8.69-.92,15.15-8,20.12-1.82,1.27-3.29,3.16-2.73,5.48.61,2.47,2.8,2.83,5.15,3a9.48,9.48,0,0,1,6.39,2.62c1,1.06,1.33,2.07,2.35,2.2a3,3,0,0,0,2.31-1.13c.32-1.61.85-4.35,1.41-7.79,1.49-9.18,1.19-10.89,3.1-13.07A37.81,37.81,0,0,1,212.74,124.67Z"/><path class="cls-5" d="M186.81,65.85c1.42.84,3.06,1.34,4.41,2.28a20.67,20.67,0,0,1,8.62,13.93c-.71,4.56.11,7.28,3.15,8.42s4.79-1.07,5.68-3.5c.8-2.17,2.42-1.82,4-2.18,2-.45,4-1,4.36-3.44A4.89,4.89,0,0,0,214,76c-8.08-3.9-12.58-9.91-12.16-19.2.1-2.28-1.79-3.55-3.59-4.36A3.15,3.15,0,0,0,194,54.09c-1.19,3.13-3.5,3.81-6.39,4.16-1.86.23-2.69,1.89-3.09,3.55C184.1,63.74,185.31,65,186.81,65.85Z"/><path class="cls-4" d="M89.48,16.38c0,5.8,2.68,10.5,6.74,10.82,5.07.4,8-2.84,9.52-7.23.89-2.54,2.06-2.93,4.67-2.59,5.3.7,9.12-1.94,10-6.15s-1.47-8-6.39-10c-.91-.37-1.94-.47-2.85-.85-.38-.16-.79-.29-1.21-.43H86.15a31.88,31.88,0,0,1,3.33,13.38Q89.48,14.88,89.48,16.38Z"/><path class="cls-5" d="M183.41,16.85c3,1.12,4.79-1.07,5.68-3.5.8-2.17,2.42-1.82,4-2.18,2-.45,4-1,4.36-3.44a4.89,4.89,0,0,0-2.95-5.31A29.11,29.11,0,0,1,190.32,0H177a21.79,21.79,0,0,1,3.24,8.43C179.55,13,180.37,15.71,183.41,16.85Z"/><path class="cls-5" d="M306.77,56.32a4,4,0,0,0-3.15,4.91c1.17,4.13-.69,6.59-3.38,9.16-1.74,1.66-1.32,4-.45,6,1,2.33,3.19,2.67,5.4,2.43,1.72-.19,3.42-.71,5.13-.93V56A10.94,10.94,0,0,0,306.77,56.32Z"/><path class="cls-3" d="M239.94,42.65c1.76-.55,2.77,0,3.84,1.31,1.54,1.82,3.33,3.59,6,2.14s2.6-4,2.21-6.57c-1.15-7.68,1-14.07,7.54-18.64,1.7-1.2,3.17-2.43,3.34-5.13-.29-2.83-2.16-4.31-5.34-3.93-1.85.22-3.48.71-4.7-1.42s-3.29-3-5.56-1.88c-2.43,1.19-3,3.53-2.36,6,2.28,8.56-1.18,14.74-7.92,19.61-2,1.46-3.59,3.27-2.65,5.86S237.37,43.44,239.94,42.65Z"/><path class="cls-3" d="M287.15,165.73a18.67,18.67,0,0,1-9.92,17.16c-2.41,1.38-4.05,3-3.34,6s3.06,3.34,5.51,3c2.07-.25,3,.76,3.82,2.39a4,4,0,0,0,5.12,2,4.24,4.24,0,0,0,3.12-5.06c-1.51-9.2,2.59-15.26,10.39-19.45,2.1-1.13,3.28-2.93,2.7-5.36s-2.54-3.34-5-3.23c-1.48.07-2.9.37-3.88-1.37-1.27-2.23-3-4.42-6-3S287,163,287.15,165.73Z"/><path class="cls-3" d="M35.39,251.26c1.34,2.46,4.48,3.8,6.23,1.52,2.89-3.75,2.38-9.44,6.57-12.07-.72-4-2.92-5.43-5.87-4.9-9.17,1.64-15.2-2.4-19.54-10-1.15-2-3-3.22-5.42-2.56s-3.37,2.72-3,5.06a3.94,3.94,0,0,1-2.17,4.48c-1.79,1.11-3,2.77-2.24,5a4.62,4.62,0,0,0,5.13,3.13C24.08,240.07,30.94,243.1,35.39,251.26Z"/><path class="cls-5" d="M123.8,258.33c1.1,2.23,2.91,3.92,5.54,3.26s3.67-2.77,3.5-5.38a4.28,4.28,0,0,1,1.87-4.29c2.17-1.48,3.2-3.64,1.84-6s-3.77-3-6.49-2.11c-2.88,1-5.5.28-8.15-1.06-4.2-2.14-8.23-4.24-10.14-9.05a4.23,4.23,0,0,0-5.41-2.48,3.94,3.94,0,0,0-3.09,4.53c.42,2.78-1,4.13-2.91,5.75-3,2.58-2.31,5.22,1.3,6.93a5.46,5.46,0,0,0,5-.09C113.55,249.46,120.24,251.12,123.8,258.33Z"/><path class="cls-5" d="M148.36,295.17a4.07,4.07,0,0,0-.57-5.49c-1.9-1.7-4.13-1.35-6-.15-2.7,1.7-5.29,3.43-8.61,3.66-4.72.33-9.26.28-13.47-2.48a5,5,0,0,0-6.49.41c-1.86,1.83-1.21,4,0,5.94.84,1.33,1.35,2.55.53,4.16-1.22,2.41-1.51,4.89,1.12,6.63s4.83.36,6.69-1.46c2.91-2.85,6.66-2.65,10.27-3.22,3.52.72,7.51.26,10.18,3.32,2.26,2.61,4.36.86,6.07-.22a3.59,3.59,0,0,0,.86-5.32C147.6,299.05,146.94,297.44,148.36,295.17Z"/><path class="cls-5" d="M37.73,199.47c2.17-.32,3.35.13,4.37,2.08a4.12,4.12,0,0,0,5.51,2.11c2.49-1,3.13-3.22,2.84-5.77a18,18,0,0,1,9.65-18.3c2-1.1,3.53-2.48,3.62-5.05-.56-2.77-2.24-4.42-5.19-4.1-1.6.18-2.88.44-3.8-1.27-1.28-2.4-3.17-4.15-6-2.92-2.68,1.16-2.92,3.77-2.85,6.38.21,8-2.91,14.18-10.2,17.91-2.43,1.24-3.43,3.13-2.85,5.71A4.06,4.06,0,0,0,37.73,199.47Z"/><path class="cls-4" d="M114.8,31.23c1.53,1.15,2.42,2.23,1.43,4-.39,2.52.11,4.59,2.46,5.59s4.53.07,6.17-1.92c5.49-6.63,12.27-9.26,20.83-7.1,2.53.64,4.49-.73,5.63-3.1s-.07-3.91-1.71-5.18c-1.38-1.07-2.65-1.79-1.85-4,1.09-3-.81-5-3.19-5.93-2.54-1-4.53.64-5.66,2.86-1.9,3.73-5.08,5.45-8.9,6.58a18.13,18.13,0,0,1-10.77.35c-2.56-.77-5-.18-6.45,2.42S113.08,29.93,114.8,31.23Z"/><path class="cls-5" d="M101.78,183.83a4.17,4.17,0,0,0-5.34-2.51c-2.19.69-3.28,0-4.52-1.69-1.37-1.84-3.3-2.79-5.67-1.53s-2.67,3.45-2.14,5.6c2.18,8.94-1.23,15.39-8.55,20.28a4.5,4.5,0,0,0-2.13,5.15,3.84,3.84,0,0,0,4.53,3c2.54-.35,4.5.22,6.08,2.33.81,1.08,2.05,1.67,4.34,1.56s3.07-2.36,2.79-4.85c-1-9.08.89-16.77,9.13-22A4.09,4.09,0,0,0,101.78,183.83Z"/><path class="cls-4" d="M67.68,76.56A5,5,0,0,0,62,73.4c-2.48.54-3.11,2.72-3,5.09.08,1.52,0,2.85-1.5,3.92-2,1.44-4.35,3-3.06,6.06s4.23,2.76,6.89,2.63c7.43-.36,13.14,2.5,17.25,8.76,1.25,1.91,2.71,3.82,5.61,4.27a4.42,4.42,0,0,0,3.92-4.64c0-1.78-.28-3.52,1.65-4.86s4-3.37,2.35-6.24c-1.49-2.56-4.23-2.95-6.6-2.12-3.43,1.2-6.13.05-8.94-1.47C72.92,82.82,69.46,80.75,67.68,76.56Z"/><path class="cls-4" d="M28.25,128.7c-5.08-7-6.58-14.26-1.91-22.11,1.48-2.48.16-4.47-1.49-6.23s-3.7-1.05-5.36.16-3,1.74-5,.91c-2.38-1-4.71-.45-5.94,2.06s-.38,4.54,1.62,6.21c3.07,2.57,3.92,6,3.91,9.79s.25,7.55-2.41,10.9a4.63,4.63,0,0,0,.17,5.62c1,1.34,2.7,2.47,4.34,1.45,3-1.83,5.82-3.14,8.74-1.37,2.12.12,3.31-.46,4.2-1.93C30.4,132,29.45,130.35,28.25,128.7Z"/><path class="cls-3" d="M144.73,102.08a4.61,4.61,0,0,0-1.76,6.13c1.64,3.53.74,6.69-.77,10-1.75,3.84-3.53,7.44-7.61,9.44a4.36,4.36,0,0,0-2.27,5.51c.59,1.93,2.15,3.3,4.14,2.82,3-.73,4.77.55,6.8,2.51,2.7,2.59,5.83,1.44,6.59-2.22a16,16,0,0,0-.16-4.43c-.59-7.1,1.47-13.08,7.31-17.46,2.29-1.72,5-3.36,3.48-6.8s-4.49-2.76-7.32-2.26l-2.56-1.56C149.09,101.62,147.2,100.39,144.73,102.08Z"/><path class="cls-3" d="M189.39,274.66c-6.74-.4-10.4-4.29-12.34-10.37a3.25,3.25,0,0,0-3.38-2.45,2.77,2.77,0,0,0-2.81,2.37c-.3,1.56-.81,2.78-2.51,3.34a2.73,2.73,0,0,0-2.1,3,3.4,3.4,0,0,0,3,3c6.54,1,11,4.4,12.83,10.9a2.93,2.93,0,0,0,3,2.16,2.64,2.64,0,0,0,2.75-2.43c.08-2.22,1.19-3.18,3.1-3.8,1-.33,1.38-1.36,1.52-2.48A3.18,3.18,0,0,0,189.39,274.66Z"/><path class="cls-5" d="M256.62,153.4c-6.69.09-10.81-3.36-13.23-9.31a3.34,3.34,0,0,0-3.42-2.42,3,3,0,0,0-2.77,3,3.75,3.75,0,0,1-2.06,3.16c-1.39.82-2.35,2-1.93,3.68.49,1.95,2.08,2.31,3.85,2.52,5.87.69,10.35,3.29,12.44,9.18a3.57,3.57,0,0,0,3.35,2.57c1.77-.1,7.52-8.6,6.83-10.18A3.36,3.36,0,0,0,256.62,153.4Z"/><path class="cls-5" d="M190.76,211.65a3.34,3.34,0,0,1-.58-2.3c0-1.91-.61-3.37-2.56-3.71s-3.16.81-4,2.41c-2.55,5.05-7.24,5.91-12.17,6.12-2.12.09-4.52-.82-5.8,1.61s.76,3.57,2.15,5a3,3,0,0,1,.53,1.84c.09,1.78.48,3.53,2.4,3.92s3.28-1,4.45-2.59a14.81,14.81,0,0,1,12-5.91c1.94-.06,4.22.82,5.46-1.37S192.33,213,190.76,211.65Z"/><path class="cls-4" d="M146.24,63.53a4,4,0,0,0-4,2.46C140,70.73,135.5,71.64,131.05,72c-7.11.63-7.12.43-4.32,6.58a10.87,10.87,0,0,1,.41,1.92c1,4.1,3.21,4.92,6.1,1.77,4.09-4.45,8.7-7,14.88-6.28,2,.23,3.64-.43,3.87-2.82.26-2.63-2.94-3.54-3-6.09C149,65.32,148.08,63.75,146.24,63.53Z"/><path class="cls-4" d="M80.64,137.1c-1.37,1.19-1.42,2.47-.56,4,.58,1,1.12,2.07.22,3.22s-1.72,2.58-.31,4a3.62,3.62,0,0,0,4.2.58c5.81-3,11.09-2,16.36,1.41,2.53,1.66,5,.5,4.95-2.35a19,19,0,0,1,.53-6.56c-.29-3.22-2.61-4-4.63-3-6,2.92-11.38,2.59-16.68-1.36A3,3,0,0,0,80.64,137.1Z"/><path class="cls-4" d="M230.53,310.06c-6.33-.11-10-3.84-12.3-9.24-.65-1.51-1.34-2.65-3.12-2.73-1.51,0-2.72.64-2.91,2.17a4.37,4.37,0,0,1-2.86,3.71c-1.27.57-2.39,1.46-2,3.05a3.76,3.76,0,0,0,3.56,3c6.27.49,10.56,3.44,12.58,9.55a3.56,3.56,0,0,0,3.45,2.47,2.77,2.77,0,0,0,2.8-2.39,5.62,5.62,0,0,1,2.84-3.86,2.84,2.84,0,0,0,1.36-3.44C233.52,310.59,232.15,310.09,230.53,310.06Z"/><path class="cls-4" d="M190.84,27.54a3.58,3.58,0,0,0,4.18.67c5.94-2.85,11.41-2.43,16.81,1.44,2.41,1.72,4.63.08,4.59-2.26s-.47-4.52.55-6.6c-.4-3.43-2.83-4.09-5-3-5.83,2.89-11.08,2.39-16.22-1.4-1.09-.8-2.44-1.24-3.69-.23a3,3,0,0,0-.8,3.63c.54,1.48.88,2.81-.26,4.18C190,25.09,189.69,26.35,190.84,27.54Z"/><polygon class="cls-2" points="68.59 275.37 68.79 275 68.45 274.97 68.59 275.37"/><path class="cls-4" d="M110.69,325.74c-6-8.38-13.65-16.07-11-28a8.11,8.11,0,0,0-5.08-9.35,7.56,7.56,0,0,0-9.87,4.51c-1.43,4.7-4.19,5.65-8.49,5.31-3.18-.25-6.23.94-7.13,4.26-1,3.78-.07,7.33,3.53,9.58,1.55,1,3.28,1.62,4.87,2.53a32.37,32.37,0,0,1,12.27,11.68h21.38A2.62,2.62,0,0,1,110.69,325.74Z"/><path class="cls-5" d="M186.7,310.86c.1-2.28-1.79-3.55-3.59-4.36a3.15,3.15,0,0,0-4.26,1.61c-1.19,3.13-3.5,3.81-6.39,4.16-1.86.23-2.69,1.89-3.09,3.55-.46,1.93.75,3.16,2.25,4s3.06,1.34,4.41,2.28a20,20,0,0,1,4.35,4.07h12.53C188.65,322.49,186.4,317.52,186.7,310.86Z"/><path class="cls-4" d="M4.66,213.26c.31-1.78.07-3.64,1.54-5.1,4.76-4.71,9.45-9.36,17-9.08,3,.11,5.57-1.16,5.67-5.6a4.39,4.39,0,0,0-3.28-4.36c-3.17-1-5-2.61-5.16-6.24C20.29,180.7,18.67,179,16,179c-2.45,0-4.19.92-5.11,3.18A34.55,34.55,0,0,1,9.57,186c-2.5,4.51-5.43,8.52-9.57,10.87V219C3.07,218.71,4.16,216.1,4.66,213.26Z"/><path class="cls-4" d="M4.47,289.11c3-9.8,8.45-14.32,18.66-15.23,3-.27,5.59-1.17,5.65-5.78.09-1.87-1.25-3.48-3.8-4.27-2.31-.72-4.18-1.69-4.32-4.69-.11-2.55-1-5-4.23-5.19s-4.85,1.57-5.73,4.47c-2,6.44-5.56,10.8-10.7,13.25v22.15C2.57,293.6,3.76,291.44,4.47,289.11Z"/><path class="cls-5" d="M20.63,85.52c2.76,5.23,5.68,7.39,9.68,6.24s4.1-4.77,3.16-7.94c-.84-2.84,1.1-3.72,2.42-5.27,1.67-2,3.36-4.08,1.84-6.87a6.27,6.27,0,0,0-7.09-3.2c-11.29,2.17-20.51-.56-27.19-10.42A4.61,4.61,0,0,0,0,56V77.91c.38,0,.75-.09,1.13-.1A26.48,26.48,0,0,1,20.63,85.52Z"/></pattern></defs><title>Mesa de trabajo 1fondo</title><rect class="cls-6" width="612" height="792"/></svg>