<svg xmlns="http://www.w3.org/2000/svg" viewBox="0 0 279.84 277.39"><defs><style>.cls-1{fill:#f0ba7d;}.cls-2{fill:#545252;}.cls-3{fill:#706c6c;}.cls-4{fill:#fff;}.cls-5{fill:#f1edec;}</style></defs><title>Artboard 1 copia 2m</title><g id="Background"><rect class="cls-1" width="279.84" height="277.39"/></g><g id="Objects"><path class="cls-2" d="M116.47,98.6s-2.52-29.18-21.25-45.39-25.58-9.73-28.46-2.88-1.8,17.65,0,31-8.65,23.06-6.49,34.59,10.81,14.05,11.53,20.54C71.8,136.43,103.86,102.2,116.47,98.6Z"/><path class="cls-3" d="M93.77,108.57c13.84-12.39,4-43-6.92-51.37S72,63.38,72,63.38a173.31,173.31,0,0,0,1.78,18.23c1.82,13.48-8.75,23.32-6.56,35A23,23,0,0,0,69,122.25C83.93,127.19,93.77,108.57,93.77,108.57Z"/><path class="cls-2" d="M166.95,98.6s2.52-29.18,21.25-45.39,25.58-9.73,28.46-2.88,1.8,17.65,0,31,8.65,23.06,6.49,34.59-10.81,14.05-11.53,20.54C211.62,136.43,179.56,102.2,166.95,98.6Z"/><path class="cls-3" d="M189.65,108.57c-13.84-12.39-4-43,6.92-51.37s14.89,6.18,14.89,6.18a174.09,174.09,0,0,1-1.78,18.23c-1.82,13.48,8.75,23.32,6.56,35a23,23,0,0,1-1.82,5.67C199.49,127.19,189.65,108.57,189.65,108.57Z"/><path class="cls-4" d="M218.14,131.85c-15.48-37.21-76.6-36.69-76.6-36.69s-64.33-.51-76.61,36.69c-15,45.52,5.15,79.18,24.46,88.84s28.32,16.09,52.15,16.09,32.83-6.44,52.14-16.09S236.56,176.11,218.14,131.85Z"/><path class="cls-2" d="M197.44,219.39c0-.23,1.69-20.29-13.2-30.21s-29.38-19.11-27.94-34.36,7.85-47.48,19.42-55.51h0c17.87,4.43,37.59,13.6,43.84,32.53C234,175.54,216,208.3,197.44,219.39Z"/><path class="cls-2" d="M86,219.39c0-.23-1.69-20.29,13.2-30.21s29.38-19.11,27.94-34.36-7.85-47.48-19.42-55.51h0c-17.87,4.43-37.59,13.6-43.84,32.53C49.43,175.54,67.44,208.3,86,219.39Z"/><circle cx="180.45" cy="160.56" r="12.31"/><circle class="cls-5" cx="176.71" cy="154.82" r="3.2"/><circle cx="100.79" cy="160.56" r="12.31"/><circle class="cls-5" cx="97.06" cy="154.82" r="3.2"/><path d="M140.93,177.92s-14.49-.4-17.3,7.65c0,0,.8,14.89,17.3,14.89s17.31-14.89,17.31-14.89C155.42,177.51,140.93,177.92,140.93,177.92Z"/><path d="M170.49,199.79c-.09.58-2.3,14.28-14.1,14.28-10.79,0-13.64-11.53-14.13-14v0h0c0-.21-.06-.35-.07-.4l-1.25.2-1.25-.2s0,.19-.07.4h0v0c-.48,2.45-3.34,14-14.12,14-11.8,0-14-13.7-14.1-14.28l-2.59.39c0,.16,2.62,16.51,16.69,16.51,9.21,0,13.55-7.07,15.46-12,1.9,4.92,6.24,12,15.46,12,14.07,0,16.67-16.35,16.69-16.51Z"/></g></svg>