<svg xmlns="http://www.w3.org/2000/svg" viewBox="0 0 279.84 277.39"><defs><style>.cls-1{fill:#e2f084;}.cls-2{fill:#303738;}.cls-3{fill:#616c6b;}.cls-4{fill:#fff;}.cls-5{fill:#f1edec;}</style></defs><title>Artboard 1 copia 3m</title><g id="Background"><rect class="cls-1" x="-0.81" width="280.66" height="277.39"/></g><g id="Objects"><path class="cls-2" d="M70.68,118.58s-3.72-56.13,5.94-84c0,0,23.35,22.58,35.83,60.94L91.21,123.12Z"/><path class="cls-3" d="M78.89,109.85s-2.23-33.68,3.56-50.43c0,0,14,13.55,21.5,36.57L91.21,112.56Z"/><path class="cls-2" d="M207.54,118.58s3.72-56.13-5.94-84c0,0-23.35,22.58-35.83,60.94L187,123.12Z"/><path class="cls-3" d="M199.33,109.85s2.23-33.68-3.57-50.43c0,0-14,13.55-21.5,36.57L187,112.56Z"/><path class="cls-2" d="M209.26,118.28C188.59,87.6,149,89.44,139.11,89.44c-9.58,0-49.49-1.84-70.15,28.84C46,152.31,90.5,238.87,137,244a18.63,18.63,0,0,0,4.29,0C187.72,238.87,232.17,152.31,209.26,118.28Z"/><path class="cls-4" d="M178.76,171.43c-17.33-12.35-29.68-26.3-30.22-46.16-.3-11.19-.26-25.43-.18-35.75-4-.13-7.27-.07-9.26-.07s-5.21-.07-9.26.07c.09,10.31.13,24.56-.17,35.74-.54,19.86-12.88,33.82-30.22,46.16-14.94,10.64-8.33,37.57-6.22,44.81,12.69,15.07,28.09,26,43.72,27.77a18.63,18.63,0,0,0,4.29,0c15.64-1.73,31-12.7,43.72-27.76C187.09,209,193.7,182.07,178.76,171.43Z"/><path d="M139.86,198.9s-14.33-.4-17.11,7.56c0,0,.8,14.72,17.11,14.72S157,206.46,157,206.46C154.19,198.5,139.86,198.9,139.86,198.9Z"/><path d="M169.09,220.53c-.09.58-2.27,14.12-13.95,14.12-10.66,0-13.49-11.41-14-13.83v0h0c0-.2-.06-.35-.07-.4l-1.24.19-1.24-.19c0,.05,0,.19-.07.4h0s0,0,0,0c-.48,2.42-3.3,13.83-14,13.83-11.68,0-13.86-13.54-13.95-14.12l-2.56.39c0,.16,2.59,16.33,16.51,16.33,9.11,0,13.4-7,15.28-11.87,1.89,4.88,6.17,11.87,15.29,11.87,13.92,0,16.49-16.17,16.51-16.33Z"/><path class="cls-3" d="M101.88,105.94c-8,2.61-29.19,16.93-25.23,40.35s29.75,18.54,41.43,0C129.5,128.18,129.63,96.94,101.88,105.94Z"/><ellipse cx="175.55" cy="139.61" rx="7.26" ry="11.42"/><ellipse class="cls-5" cx="174.35" cy="132.82" rx="2.69" ry="2.01"/><ellipse cx="103.08" cy="139.61" rx="7.26" ry="11.42"/><ellipse class="cls-5" cx="101.88" cy="132.82" rx="2.7" ry="2.01"/></g></svg>