<svg xmlns="http://www.w3.org/2000/svg" viewBox="0 0 279.84 277.39"><defs><style>.cls-1{fill:#87f066;}.cls-2{fill:#e7af40;}.cls-3{fill:#dd6a26;}.cls-4{fill:#f3e1af;}.cls-5{fill:#f1edec;}</style></defs><title>Artboard 1 copia 4m</title><g id="Background"><rect class="cls-1" width="279.84" height="277.39"/></g><g id="Objects"><path class="cls-2" d="M119.24,99.89S93.72,51.24,30.44,46.14c0,0-16.67,79.09,56.14,97Z"/><path class="cls-3" d="M102.12,97.91S86.26,67.68,46.94,64.51c0,0-10.36,49.14,34.88,60.3Z"/><path class="cls-2" d="M165.73,99.89s25.52-48.65,88.8-53.76c0,0,16.67,79.09-56.14,97Z"/><path class="cls-3" d="M182.86,97.91S198.71,67.68,238,64.51c0,0,10.36,49.14-34.88,60.3Z"/><path class="cls-2" d="M205.12,123.33c-19.39-40.83-62-38.79-62-38.79s-42.64-2-62,38.79,7.14,61.24,10.72,66.34c0,0,3.06,25.52,29.09,35.21,0,0,9.76,7.65,22.23,7.65s22.23-7.65,22.23-7.65c26-9.7,29.09-35.21,29.09-35.21C198,184.57,224.51,164.16,205.12,123.33Z"/><path class="cls-4" d="M163.78,173.17c-13.27-3.4-12.93-24.5-11.57-36.75s-.91-24.16-9.13-24.16h0c-8.22,0-10.49,11.91-9.13,24.16s1.7,33.34-11.57,36.75-30.62,16.5-30.62,16.5,3.06,25.52,29.09,35.21c0,0,9.76,7.65,22.23,7.65h0c12.47,0,22.23-7.65,22.23-7.65,26-9.7,29.09-35.21,29.09-35.21S177,176.57,163.78,173.17Z"/><circle cx="183" cy="163.41" r="11.99"/><circle class="cls-5" cx="179.36" cy="157.82" r="3.12"/><circle cx="104.66" cy="163.41" r="11.99"/><circle class="cls-5" cx="101.02" cy="157.82" r="3.12"/><path d="M158.5,195.63c-1.36-7.31-15.42-8.34-15.42-8.34s-14.07,1-15.43,8.34,3.29,17.18,15.43,17.18S159.87,202.94,158.5,195.63Z"/><path d="M143.08,226.84c11.37,0,16.19-3.74,16.19-3.74-9.52,1.36-16.19-5-16.19-5h0s-6.67,6.38-16.19,5c0,0,4.82,3.74,16.19,3.74Z"/></g></svg>