<svg xmlns="http://www.w3.org/2000/svg" viewBox="0 0 279.84 277.39"><defs><style>.cls-1{fill:#77bfc2;}.cls-2{fill:#f3f4e7;}.cls-3{fill:#f1d4e5;}.cls-4{fill:#f1edec;}</style></defs><title>Artboard 1 copia 5m</title><g id="Background"><rect class="cls-1" width="279.84" height="277.39"/></g><g id="Objects"><path class="cls-2" d="M113.62,87.32S99.52,28.38,87.91,30s-14.68,59.5-14.53,87.81L108.74,103Z"/><path class="cls-3" d="M105.79,96.58s-9.2-46-15.16-45.18S85.07,93.47,85.15,108l18.68-9.21Z"/><path class="cls-2" d="M170.4,87.32S184.5,28.38,196.11,30s14.68,59.5,14.53,87.81L175.29,103Z"/><path class="cls-3" d="M178.23,96.58s9.2-46,15.16-45.18S199,93.47,198.88,108l-18.68-9.21Z"/><path class="cls-2" d="M223.85,140.3c-9.82-54-65.29-58-79.63-58.87v-.11s-.8,0-2.21,0-2.21,0-2.21,0v.11c-14.33.86-69.74,4.88-79.63,58.87C45.11,222.56,92.73,245.78,139.8,248.54v.13c.73,0,1.47,0,2.21-.07s1.48.07,2.21.07v-.13C191.3,245.78,236.78,211.37,223.85,140.3Z"/><ellipse cx="174.67" cy="141.82" rx="6.12" ry="9.63"/><ellipse class="cls-4" cx="173.66" cy="136.1" rx="2.27" ry="1.7"/><ellipse cx="112.47" cy="141.82" rx="6.12" ry="9.63"/><ellipse class="cls-4" cx="111.46" cy="136.1" rx="2.27" ry="1.7"/><path d="M142,169.84s-15.52-.43-18.53,8.19c0,0,.86,15.95,18.53,15.95S160.54,178,160.54,178C157.53,169.41,142,169.84,142,169.84Z"/><path d="M173.67,193.27c-.09.63-2.46,15.29-15.1,15.29-11.55,0-14.61-12.36-15.13-15v0h0c0-.22-.07-.37-.07-.43l-1.34.21-1.34-.21c0,.05,0,.2-.07.43h0v0c-.52,2.62-3.58,15-15.13,15-12.64,0-15-14.67-15.1-15.29l-2.78.42c0,.17,2.81,17.68,17.88,17.68,9.87,0,14.51-7.57,16.55-12.85,2,5.28,6.69,12.85,16.55,12.85,15.07,0,17.85-17.5,17.88-17.68Z"/></g></svg>