<svg xmlns="http://www.w3.org/2000/svg" viewBox="0 0 279.84 277.39"><defs><style>.cls-1{fill:#7cc266;}.cls-2{fill:#5f5f5d;}.cls-3{fill:#f3f4e7;}.cls-4{fill:#f1edec;}</style></defs><title>Artboard 1 copia 6m</title><g id="Background"><rect class="cls-1" width="279.84" height="277.39"/></g><g id="Objects"><path class="cls-2" d="M107.14,81.73S72.49,36.35,58.43,42.62s-1.2,57.82,7.16,82.36l40-27.57Z"/><path class="cls-3" d="M100,93s-24.79-36.18-32-33,5.18,38.88,9.47,51.48L98.19,95.77Z"/><path class="cls-2" d="M171.07,81.73s34.66-45.38,48.71-39.11,1.2,57.82-7.16,82.36l-40-27.57Z"/><path class="cls-3" d="M178.21,93s24.79-36.18,32-33-5.18,38.88-9.47,51.48L180,95.77Z"/><path class="cls-3" d="M221.29,135.77c-9.82-54-65.29-58-79.63-58.87v-.11s-.8,0-2.21,0-2.21,0-2.21,0v.11c-14.33.86-69.74,4.88-79.63,58.87C42.55,218,90.17,241.25,137.24,244v.13c.73,0,1.47,0,2.21-.07s1.48.07,2.21.07V244C188.74,241.25,234.22,206.84,221.29,135.77Z"/><ellipse cx="172.33" cy="156.75" rx="6.12" ry="9.63"/><ellipse class="cls-4" cx="171.32" cy="151.03" rx="2.27" ry="1.7"/><ellipse cx="110.12" cy="156.75" rx="6.12" ry="9.63"/><ellipse class="cls-4" cx="109.11" cy="151.03" rx="2.27" ry="1.7"/><path d="M139.66,180.45s-15.52-.43-18.53,8.19c0,0,.86,15.95,18.53,15.95s18.53-15.95,18.53-15.95C155.18,180,139.66,180.45,139.66,180.45Z"/><path d="M168.77,201.35c-.09.58-2.26,14.06-13.88,14.06-10.62,0-13.43-11.36-13.91-13.77v0h0c0-.21-.06-.35-.07-.4l-1.24.19-1.23-.19s0,.19-.07.4h0v0c-.48,2.41-3.29,13.77-13.91,13.77-11.62,0-13.8-13.49-13.88-14.06l-2.55.39c0,.16,2.58,16.25,16.44,16.25,9.07,0,13.35-7,15.22-11.81C141.54,211,145.81,218,154.88,218c13.86,0,16.41-16.09,16.44-16.25Z"/><path class="cls-2" d="M222.46,135.75C212.5,81,156.24,76.91,141.7,76v-.11s-.82,0-2.24,0-2.24,0-2.24,0V76c-14.54.87-70.74,4.95-80.76,59.71-4.72,25.77-2.65,45.82,2.87,61.31l1.29,1.52A44.63,44.63,0,0,0,82,160.8c.48-26.63,6.12-42.34,22.79-42.34,17.18,0,22.67,14.93,26.32,23.15h16.17c3.65-8.22,8.92-23.15,26.32-23.15,19.11,0,22.31,15.71,22.79,42.34.4,22,14.09,33.34,19.35,36.66C223,181.19,227,160.75,222.46,135.75Z"/></g></svg>