<svg xmlns="http://www.w3.org/2000/svg" viewBox="0 0 279.84 277.39"><defs><style>.cls-1{fill:#ebf5ad;}.cls-2{fill:#f8e0c5;}.cls-3{fill:#f1edec;}.cls-4{fill:#d8ba97;}</style></defs><title>Artboard 1 copia 7m</title><g id="Background"><rect class="cls-1" x="0.34" y="-0.23" width="279.84" height="279.84"/></g><g id="Objects"><path class="cls-2" d="M223.28,102.7C205.65,50.42,147.16,51.78,142.57,52c-4.58-.19-63.08-1.54-80.7,50.73C43.52,157.11,87.81,183,87.81,197.26s11.34,36.76,54.47,37h.59c43.13-.21,54.47-22.78,54.47-37S241.62,157.11,223.28,102.7Z"/><ellipse cx="179.62" cy="136.15" rx="7.29" ry="11.46"/><ellipse class="cls-3" cx="178.41" cy="129.33" rx="2.7" ry="2.02"/><ellipse cx="105.53" cy="136.15" rx="7.29" ry="11.46"/><ellipse class="cls-3" cx="104.33" cy="129.33" rx="2.7" ry="2.02"/><path d="M141.23,177S121,176.41,117,187.67c0,0,1.13,20.84,24.21,20.84s24.21-20.84,24.21-20.84C161.5,176.41,141.23,177,141.23,177Z"/><path d="M175.42,205c-.1.68-2.66,16.52-16.31,16.52-12.47,0-15.78-13.35-16.34-16.17v0h0c0-.24-.07-.41-.08-.46l-1.45.22-1.45-.22c0,.06,0,.22-.08.46h0a.39.39,0,0,1,0,0c-.56,2.82-3.86,16.17-16.34,16.17-13.65,0-16.21-15.84-16.31-16.52l-3,.45c0,.19,3,19.09,19.31,19.09,10.66,0,15.68-8.17,17.88-13.87,2.2,5.7,7.22,13.87,17.88,13.87,16.28,0,19.28-18.9,19.31-19.09Z"/><path class="cls-4" d="M195.2,66.1s35.37,18.32,52,32.58,18.23,36.87,9.11,47.36-21.79,21.61-23.38,33.88-10.7,7.52-10.7-4.37S227.18,97.31,195.2,66.1Z"/><path class="cls-4" d="M89.78,66.1s-35.37,18.32-52,32.58S19.53,135.54,28.65,146,50.44,167.64,52,179.92s10.7,7.52,10.7-4.37S57.79,97.31,89.78,66.1Z"/></g></svg>