<svg xmlns="http://www.w3.org/2000/svg" viewBox="0 0 279.84 277.39"><defs><style>.cls-1{fill:#a4b4c2;}.cls-2{fill:#c98e6a;}.cls-3{fill:#885e46;}.cls-4{fill:#e9e4de;}.cls-5{fill:#f1edec;}</style></defs><title>Artboard 1 copia 8m</title><g id="Background"><rect class="cls-1" y="-1.23" width="281.63" height="278.62"/></g><g id="Objects"><path class="cls-2" d="M106.87,78.86S89.85,40.07,81,38.44,38,68.18,35.11,75,66.3,108.51,66.3,108.51Z"/><path class="cls-3" d="M97,86.17S87.25,63.86,82.18,62.92,57.45,80,55.77,84s17.94,19.25,17.94,19.25Z"/><path class="cls-2" d="M176.55,78.86s17-38.79,25.84-40.42,43,29.74,45.92,36.6-31.19,33.47-31.19,33.47Z"/><path class="cls-3" d="M186.38,86.17s9.79-22.31,14.86-23.25S226,80,227.65,84s-17.94,19.25-17.94,19.25Z"/><path class="cls-4" d="M141.57,62.85s-83,0-83,80.24c0,69.41,35.31,61.2,41.45,83s41.51,21.76,41.51,21.76,35.36,0,41.51-21.76,41.45-13.55,41.45-83C224.53,62.85,141.57,62.85,141.57,62.85Z"/><path class="cls-2" d="M57.27,143.09c0,23.43,5.38,38,10.95,47.89,0,0,20.75-25.08,53.89-25.8,0,0,14.41-50.35,0-100.11C97.69,70.17,57.27,87.07,57.27,143.09Z"/><path class="cls-2" d="M226.15,143.09c0,23.43-5.65,38-11.22,47.89,0,0-20.48-25.08-53.62-25.8,0,0-14.41-50.35,0-100.11C185.73,70.17,226.15,87.07,226.15,143.09Z"/><ellipse cx="178.62" cy="131.92" rx="7.29" ry="11.46"/><path class="cls-5" d="M180.12,125.11c0,1.12-1.21,2-2.71,2s-2.7-.9-2.7-2,1.21-2,2.7-2S180.12,124,180.12,125.11Z"/><ellipse cx="104.53" cy="131.92" rx="7.29" ry="11.46"/><ellipse class="cls-5" cx="103.33" cy="125.11" rx="2.7" ry="2.02"/><path d="M141.57,187.26s-17.81-.5-21.28,9.4c0,0,1,18.31,21.28,18.31s21.28-18.31,21.28-18.31C159.39,186.76,141.57,187.26,141.57,187.26Z"/><path d="M171.62,211.85c-.09.59-2.34,14.51-14.33,14.51-11,0-13.87-11.73-14.36-14.21v0h0c0-.21-.06-.36-.07-.41l-1.28.2-1.27-.2s0,.19-.07.41h0a.38.38,0,0,1,0,0c-.49,2.48-3.4,14.21-14.36,14.21-12,0-14.24-13.92-14.33-14.51l-2.64.4c0,.17,2.67,16.78,17,16.78,9.37,0,13.78-7.18,15.71-12.19,1.94,5,6.34,12.19,15.71,12.19,14.3,0,16.94-16.61,17-16.78Z"/></g></svg>