<svg xmlns="http://www.w3.org/2000/svg" viewBox="0 0 279.84 277.39"><defs><style>.cls-1{fill:#9684f0;}.cls-2{fill:#fff;}.cls-3{fill:#a2715b;}.cls-4{fill:#f1edec;}.cls-5{fill:#8d604d;}</style></defs><title>Artboard 1m</title><g id="Background"><rect class="cls-1" x="-0.81" width="280.66" height="277.39"/></g><g id="Objects"><path class="cls-2" d="M209.33,99.37c-24.89-49.13-70.09-44.55-70.1-44.55S94,50.24,69.13,99.37s-24.89,93,70.1,93h0C234.22,192.4,234.22,148.5,209.33,99.37Z"/><path class="cls-3" d="M134.81,54.7s9.43,68.85-14.16,80.26c-36.08,17.46-41.13,48.21-41.13,48.22h0l-3.66-1.76c-30.66-16.06-25.42-47.78-8-82.05C88.79,58,124.19,54.7,134.81,54.7Z"/><path class="cls-3" d="M143.64,54.7S134.21,123.55,157.8,135c36.08,17.46,41.13,48.21,41.13,48.22h0l3.66-1.76c30.66-16.06,25.42-47.78,8-82.05C189.66,58,154.26,54.7,143.64,54.7Z"/><path d="M139.42,134.92s-14.49-.4-17.3,7.64c0,0,.81,14.89,17.3,14.89s17.3-14.89,17.3-14.89C153.91,134.52,139.42,134.92,139.42,134.92Z"/><path d="M169,156.8c-.09.59-2.3,14.28-14.1,14.28-10.78,0-13.64-11.53-14.13-14v0h0c0-.21-.06-.35-.07-.4l-1.25.19-1.25-.19-.07.4h0v0c-.48,2.45-3.34,14-14.12,14-11.8,0-14-13.7-14.1-14.28l-2.59.39c0,.16,2.62,16.51,16.69,16.51,9.21,0,13.55-7.07,15.46-12,1.9,4.92,6.24,12,15.46,12,14.07,0,16.67-16.35,16.69-16.51Z"/><ellipse cx="170.46" cy="115.67" rx="3.74" ry="7.88"/><circle class="cls-4" cx="169.84" cy="110.98" r="1.39"/><ellipse cx="113.23" cy="115.67" rx="3.75" ry="7.88"/><circle class="cls-4" cx="112.56" cy="110.98" r="1.39"/><path class="cls-5" d="M177.84,63.86s25.82,10.39,37.61,23.06c6.15,6.6,17.47,19.61,18.34,48s6.95,42.42,9.69,67.74c3.41,31.45-51.27,27.34-53.37,3.49-2.62-29.7,4.8-61.65,4.8-90.49C194.92,91.72,177.84,63.86,177.84,63.86Z"/><path class="cls-5" d="M100.38,63.86S74.56,74.25,62.77,86.92c-6.15,6.6-17.47,19.61-18.34,48s-6.95,42.42-9.69,67.74C31.32,234.11,86,230,88.1,206.15c2.62-29.7-4.8-61.65-4.8-90.49C83.3,91.72,100.38,63.86,100.38,63.86Z"/></g></svg>