<svg id="Capa_1" data-name="Capa 1" xmlns="http://www.w3.org/2000/svg" viewBox="0 0 308 302.11"><defs><style>.cls-1{fill:#606060;}</style></defs><title>Mesa de trabajo 2play</title><path class="cls-1" d="M97,156.34c11.88,10.22,23,8.68,33.93-2.47,2.47-2.51,7.74-2.63,11.81-3.15,25.27-3.23,39-16.27,45.45-40.59,2.43-9.18,8.6-17.38,12.63-25.2-6.67-2.78-17.89-4.53-24.43-11C170,67.6,166.14,56.66,165.26,47.36c-1.43-15.2,11-28,27.19-31.67,12.58-2.89,28.88,4.54,35.66,16.24C237,47.26,233.28,62.78,216,79.83c3.58.75,6.53,1.39,9.49,2,14.28,2.89,22.9,11.18,25.77,25.76,3.73,19,7.6,37.9,12.23,56.64,3.18,12.87,2.44,24.65-3.68,36.58-4.33,8.43-7.12,17.65-11.41,28.59,12.94,0,23.74-.2,34.54.05,12.81.3,19.89,6.93,19.73,17.93-.15,10.66-7.75,17.55-20.25,17.68-18.95.2-37.9.29-56.85,0-18.4-.31-25.88-11.49-19.43-28.48,2.22-5.86,4.75-11.6,8.22-20l-21,5.42c2.39,13.9,4.5,26.69,6.8,39.45,2.55,14.15-2.07,24-12.62,26.39-11.36,2.62-19.82-4.26-22.77-19.27-3.41-17.33-6.66-34.7-9.35-52.16-2.45-15.86,2.15-22.38,17.6-26.94,2.42-.71,4.87-1.32,7.31-2,23.5-6.29,23.5-6.29,15.75-31-14.86,13.05-31.93,20-51.39,20.38-4.15.07-8.68-1.73-12.4-.6-6.2,1.89-14.5,3.88-17.35,8.6-10.87,18-21,36.55-29.12,55.88-3.44,8.22-1.14,18.86-1.4,28.4-.11,4.2.89,8.79-.5,12.49-1,2.73-5,5.58-7.91,5.94-2,.24-5.51-3.39-6.47-6-1.25-3.38-.65-7.46-2.32-11.62-1.05,3.93-1.31,8.37-3.39,11.66-1.91,3-5.77,4.82-8.77,7.16-2-3.24-5.8-6.57-5.63-9.7.51-9.6,2.67-19.11,4-28.68,1.67-12.41-4.12-16.95-16.21-12.87-2.39.81-4.76,2.42-7.12,2.37-2.94-.06-5.85-1.46-8.77-2.28,1.43-2.66,2.38-7.19,4.36-7.69,14.18-3.59,20-15.21,24.78-26.61C59.65,181.34,77.38,168.56,97,156.34Z"/><path class="cls-1" d="M63.24,174.87,33.8,136.21q4-2.3,8.2-4.54a302.63,302.63,0,0,1,49.26-20.91,13.05,13.05,0,0,1,5.5,2.77,13.52,13.52,0,0,1,4.08,6.47c1.38,5.34-1.37,10.92-4.72,16.26a99.4,99.4,0,0,0-4.78,9.6c-2.28,4.7-3.49,10.53-7.05,13.85C78,165.58,70.28,169.93,63.24,174.87Z"/></svg>