<svg id="Capa_1" data-name="Capa 1" xmlns="http://www.w3.org/2000/svg" viewBox="0 0 296.56 301.78"><title>Mesa de trabajo 1play</title><path d="M0,301.8V178c6.14.33,12.21.48,18.24,1,37.93,3.39,74,14.06,108.9,28.73,20.66,8.69,40.78,18.66,61.13,28.08,1.94.9,3.8,2,6.47,3.36-4.33,3.39-8.38,6.13-11.94,9.4-18,16.52-35.85,33.24-53.91,49.71-2,1.83-5,3.59-7.57,3.61-39,.23-77.94.16-116.91.15C3.11,302.09,1.81,301.93,0,301.8Z"/><path d="M296.56,301.78h-147c42.69-41.26,86.81-80.09,147-95Z"/><path d="M178.52,181.78c1.58.87,3.38,1.49,4.7,2.66q12.32,11,24.43,22.15c5.28,4.89,6,10.94,2,15.43s-10.38,4.7-15.56.08c-19.37-17.31-38.61-34.77-57.89-52.19-4.7-4.24-9.48-8.4-14-12.81-2.29-2.23-4.29-2.35-7.09-1-9.75,4.66-19.62,9-29.42,13.6-10.61,4.94-17.13,1.23-18.11-11.1-2.81,1.24-5.65,2.06-8,3.61-5.89,3.9-13.4.14-15.57-4.87-2.39-5.51,0-10.92,6.71-14,13.27-6.16,26.54-12.3,39.92-18.22,3-1.34,4.32-2.85,4.16-6.27-.29-6.48-.07-13-.09-19.49,0-4.15,1.36-7.3,6-7.62,3.94-.27,6.15,2.62,6.27,7.78.22,9.56.21,9.56,9.17,12.4,14.25,4.51,28.37,9.49,42.79,13.36,11.18,3,18.57,11.36,27.77,17.13,5.58,3.5,8.21,7.79,7,14.32-.8,4.46,1,7.35,5,9.68,5.73,3.37,11.12,7.32,16.57,11.14,5.16,3.62,6.55,10.18,3.31,14.83-3.13,4.49-9.5,5.54-14.62,2.25-6.58-4.23-13.06-8.6-19.62-12.86-1.26-.82-2.68-1.41-4-2.11Z"/><path d="M193.77,128.9v8.76c-4.41-3.32-7.85-6.72-11.95-8.85C170.7,123,167.08,114.27,168.66,102c1.05-8.18.21-16.61.23-24.92a15.2,15.2,0,0,1,.37-1.86L226.44,116c-.28.71-.45,1.14-.62,1.57-3.81,9.28-10.4,13.28-20.56,11.42C201.74,128.36,198,128.9,193.77,128.9Z"/><path d="M276.07,159.74a18.1,18.1,0,0,1-18.27,18.39,18.6,18.6,0,0,1-18.86-18.53A19,19,0,0,1,257.44,141,18.45,18.45,0,0,1,276.07,159.74Z"/><path d="M139.91,18.33c.12,4.49-2.66,7.59-6.09,7.29s-5.86-2.2-6-6c-.14-3.48,2.79-6.68,6.14-6.39C137.48,13.52,139.73,15.46,139.91,18.33Z"/><path d="M267.86,121.78c0,4.19-2.93,7.37-6.26,7-3.49-.39-5.81-2.3-5.88-6.14-.07-3.55,2.81-6.61,6.22-6.26S267.67,118.74,267.86,121.78Z"/><path d="M113.31,5c3.38,0,6.56,3.16,6.14,6.45C119,15,117,17.24,113.2,17.2s-5.77-2.34-6.16-5.85C106.68,8.09,109.94,5,113.31,5Z"/><path d="M98.81,19.45c0,3.38-3.14,6.58-6.42,6.18-3.51-.43-5.79-2.39-5.77-6.23s2.31-5.78,5.82-6.19C95.7,12.83,98.81,16.08,98.81,19.45Z"/><path d="M247.25,52.09c-.25,4.32-2.5,6.26-6.06,6.55-3.29.26-6.55-3.11-6.26-6.38.32-3.64,2.59-5.73,6.14-6A6,6,0,0,1,247.25,52.09Z"/><path d="M150.16,54.59c4.09.2,6.1,2.41,6.47,5.95.34,3.18-3.08,6.45-6.31,6.41a6.57,6.57,0,0,1-6.16-6.57A6.13,6.13,0,0,1,150.16,54.59Z"/><path d="M201.86,40.12a5.82,5.82,0,0,1-6.39,6c-3.73-.25-5.74-2.37-5.71-6.1s2.13-5.79,5.84-6A5.85,5.85,0,0,1,201.86,40.12Z"/><path d="M261.87,104a5.89,5.89,0,0,1-6.13-6.28c.15-3.75,2.23-5.8,5.94-5.86s5.86,2,6.15,5.67A6,6,0,0,1,261.87,104Z"/><path d="M148.2,40.55c-.42,3.26-2.22,5.48-6,5.55a6.06,6.06,0,0,1-6.28-6.22,6.22,6.22,0,0,1,6.63-5.9A6.09,6.09,0,0,1,148.2,40.55Z"/><path d="M220.8,46.14c-3.79-.07-5.93-2-6.31-5.65A5.93,5.93,0,0,1,220.37,34c3.5-.07,6.59,2.76,6.35,6.15C226.46,43.69,224.48,45.85,220.8,46.14Z"/><path d="M177,48.69c-.07,3.17-2,5.32-5.67,5.66a6,6,0,0,1-6.52-5.94,6.36,6.36,0,0,1,6.25-6.35C174.38,42.12,177,44.76,177,48.69Z"/><path d="M252.69,79.1c-3-.23-5-2.3-5.22-6A5.84,5.84,0,0,1,253.72,67c3.74.19,5.72,2.42,6,6S257,79.17,252.69,79.1Z"/></svg>